<svg width="677" height="193" viewBox="0 0 677 193" fill="none" xmlns="http://www.w3.org/2000/svg">
<mask id="mask0_1696_56" style="mask-type:luminance" maskUnits="userSpaceOnUse" x="0" y="0" width="677" height="193">
<path d="M676.923 0H0V192.133H676.923V0Z" fill="white"/>
</mask>
<g mask="url(#mask0_1696_56)">
<path d="M191.49 121.767C191.524 117.689 190.074 115.201 186.638 113.097C177.354 107.422 158.468 95.429 158.468 95.429C168.102 89.6305 177.432 83.329 187.017 77.4459C190.294 75.4321 191.507 73.0121 191.478 69.1816C191.326 48.3324 191.292 27.4775 191.485 6.62261C191.535 1.81082 190.08 -0.0112249 185.088 5.19904e-05C164.12 0.0451828 143.118 0.0113362 122.19 0.0621055C109.222 0.0959516 101.329 6.89338 95.7446 18.9652C91.3277 6.60008 82.4769 0.10159 69.7397 0.0677441C48.8567 0.0113364 27.5674 0.0508208 6.48126 0.0169747C1.57922 0.0113362 -0.0397613 1.82211 -0.000274153 6.68469C0.191521 27.9118 0.163316 49.139 -0.000274153 70.3662C-0.0341203 74.4444 1.40999 76.9382 4.85101 79.0367C14.2038 84.7451 33.0223 96.6875 33.0223 96.7044C33.0223 96.7044 14.0572 108.804 4.47306 114.687C1.19562 116.707 -0.0228383 119.127 0.0110079 122.952C0.163316 143.801 0.197162 164.656 0.00536687 185.511C-0.0397613 190.328 1.41562 192.144 6.40793 192.139C27.3757 192.094 48.2249 192.122 69.3053 192.077C82.2738 192.049 90.1661 185.246 95.7507 173.174C100.168 185.539 109.018 192.043 121.755 192.071C143.062 192.122 163.928 192.088 185.02 192.122C189.922 192.127 191.541 190.317 191.495 185.454C191.304 164.227 191.332 142.994 191.49 121.767Z" fill="#4152F0"/>
<path d="M158.462 95.4255L1.61328 1.29954C1.61328 1.29954 2.27328 0.549286 4.25328 0.17134C5.42661 -0.0486598 7.23174 0.0190322 8.86761 0.0133861C13.0364 -0.00917545 58.7682 0.0472324 58.7682 0.0472324L158.456 95.4317L158.462 95.4255Z" fill="url(#paint0_linear_1696_56)"/>
<path d="M33.0054 96.6875L189.854 190.814C189.854 190.814 189.2 191.564 187.214 191.941C186.041 192.168 184.235 192.094 182.6 192.105C178.431 192.127 132.699 192.071 132.699 192.071L33.0054 96.6875Z" fill="url(#paint1_linear_1696_56)"/>
<path d="M532.925 141.039H548.195V122.598H536.862C531.481 122.598 527.103 118.221 527.103 112.839V83.4948H548.195V66.1427H527.103V47.375H503.078V111.813C503.078 132.848 511.449 141.039 532.925 141.039Z" fill="white"/>
<path d="M583.401 47.375H559.375V141.039H583.401V47.375Z" fill="white"/>
<path d="M635.338 62.4197C611.708 62.4197 593.893 80.1779 593.893 103.729C593.893 127.28 611.324 144.762 635.338 144.762C659.352 144.762 676.923 127.06 676.923 103.588C676.923 80.1156 659.047 62.4197 635.338 62.4197ZM635.338 124.239C624.067 124.239 616.198 115.806 616.198 103.729C616.198 91.6518 624.067 82.9471 635.338 82.9471C646.608 82.9471 654.748 91.6287 654.748 103.593C654.748 115.558 646.586 124.239 635.338 124.239Z" fill="white"/>
<path d="M362.6 84.026C371.439 84.026 378.631 91.2183 378.631 100.058V141.04H401.889V95.2176C401.889 75.756 389.518 63.6619 369.611 63.6619C357.241 63.6619 348.412 69.1958 343.364 80.1053L341.998 83.0499L340.904 79.9929C337.034 69.1562 328.844 63.6562 316.563 63.6562C306.984 63.6562 298.884 66.7814 294.935 73.8437C293.627 76.1906 292.995 78.3568 292.995 78.3568V66.1327H268.829V141.04H292.295L293.001 97.8522C294.084 89.9999 300.114 84.026 308.164 84.026C317.003 84.026 324.195 91.2183 324.195 100.058V141.04H346.737V97.796C347.82 89.9437 354.555 84.026 362.6 84.026Z" fill="white"/>
<path d="M452.839 63.191C429.355 63.191 411.648 80.9888 411.648 104.585C411.648 128.181 429.609 145.432 455.332 145.432C473.428 145.432 485.484 136.423 490.735 127.99L492.355 125.383L474.732 116.211C471.974 121.53 464.668 125.338 456.065 125.338C445.099 125.338 436.204 119.156 436.204 111.529H436.226V111.506H493.037L493.426 108.257C493.595 106.83 493.595 105.476 493.595 104.167C493.595 79.268 477.598 63.1797 452.839 63.1797V63.191ZM469.644 96.3603H436.204V96.3265C436.204 88.8688 443.689 82.8218 452.924 82.8218C462.158 82.8218 469.644 88.8688 469.644 96.3265V96.3603Z" fill="white"/>
</g>
<defs>
<linearGradient id="paint0_linear_1696_56" x1="80.0401" y1="78.1755" x2="80.0401" y2="-2.04558" gradientUnits="userSpaceOnUse">
<stop offset="0.13" stop-color="#172881"/>
<stop offset="0.17" stop-color="#192987" stop-opacity="0.95"/>
<stop offset="0.56" stop-color="#2F3CC4" stop-opacity="0.44"/>
<stop offset="0.85" stop-color="#3C47EA" stop-opacity="0.12"/>
<stop offset="1" stop-color="#424CF9" stop-opacity="0"/>
</linearGradient>
<linearGradient id="paint1_linear_1696_56" x1="111.432" y1="113.937" x2="111.432" y2="194.158" gradientUnits="userSpaceOnUse">
<stop offset="0.13" stop-color="#172881"/>
<stop offset="0.17" stop-color="#192987" stop-opacity="0.95"/>
<stop offset="0.56" stop-color="#2F3CC4" stop-opacity="0.44"/>
<stop offset="0.85" stop-color="#3C47EA" stop-opacity="0.12"/>
<stop offset="1" stop-color="#424CF9" stop-opacity="0"/>
</linearGradient>
</defs>
</svg>
