<svg width="88" height="26" viewBox="0 0 88 26" fill="none" xmlns="http://www.w3.org/2000/svg">
<g clip-path="url(#clip0_288_123)">
<path d="M24.8937 16.341C24.8981 15.8108 24.7096 15.4874 24.263 15.2138C23.056 14.4761 20.6008 12.917 20.6008 12.917C21.8533 12.1632 23.0662 11.344 24.3122 10.5792C24.7382 10.3174 24.8959 10.0028 24.8922 9.50484C24.8724 6.79444 24.868 4.0833 24.893 1.37217C24.8996 0.746637 24.7104 0.509771 24.0614 0.511237C21.3356 0.517104 18.6054 0.512704 15.8847 0.519304C14.1988 0.523704 13.1728 1.40737 12.4468 2.9767C11.8726 1.36924 10.722 0.524437 9.06617 0.520037C6.35137 0.512704 3.58377 0.517837 0.842569 0.513437C0.205303 0.512704 -0.00516409 0.748104 -3.07569e-05 1.38024C0.0249026 4.13977 0.0212359 6.8993 -3.07569e-05 9.65884C-0.00443076 10.189 0.183303 10.5132 0.630636 10.786C1.8465 11.5281 4.2929 13.0806 4.2929 13.0828C4.2929 13.0828 1.82744 14.6558 0.581503 15.4206C0.155436 15.6832 -0.00296409 15.9978 0.00143591 16.495C0.0212359 19.2054 0.0256359 21.9165 0.000702576 24.6276C-0.00516409 25.2539 0.184036 25.49 0.833036 25.4893C3.55884 25.4834 6.26924 25.4871 9.0097 25.4812C10.6956 25.4776 11.7216 24.5932 12.4476 23.0238C13.0218 24.6313 14.1724 25.4768 15.8282 25.4805C18.598 25.4871 21.3106 25.4827 24.0526 25.4871C24.6898 25.4878 24.9003 25.2524 24.8944 24.6203C24.8695 21.8608 24.8739 19.1005 24.8944 16.341H24.8937Z" fill="#4152F0"/>
<path d="M20.6 12.917L0.209717 0.68062C0.209717 0.68062 0.295517 0.583087 0.552917 0.533954C0.70545 0.505354 0.940117 0.514154 1.15278 0.51342C1.69472 0.510487 7.63985 0.51782 7.63985 0.51782L20.5993 12.9178L20.6 12.917Z" fill="url(#paint0_linear_288_123)"/>
<path d="M4.29071 13.0806L24.681 25.317C24.681 25.317 24.596 25.4145 24.3378 25.4636C24.1853 25.493 23.9506 25.4834 23.738 25.4849C23.196 25.4878 17.2509 25.4805 17.2509 25.4805L4.29071 13.0806Z" fill="url(#paint1_linear_288_123)"/>
<path d="M69.2802 18.8462H71.2653V16.4489H69.7921C69.0925 16.4489 68.5234 15.8799 68.5234 15.1803V11.3655H71.2653V9.10972H68.5234V6.66992H65.4001V15.0468C65.4001 17.7814 66.4884 18.8462 69.2802 18.8462Z" fill="black"/>
<path d="M75.8421 6.66992H72.7188V18.8462H75.8421V6.66992Z" fill="black"/>
<path d="M82.5939 8.62573C79.522 8.62573 77.2061 10.9343 77.2061 13.9959C77.2061 17.0576 79.4721 19.3302 82.5939 19.3302C85.7157 19.3302 88 17.029 88 13.9776C88 10.9262 85.6761 8.625 82.5939 8.625V8.62573ZM82.5939 16.6623C81.1287 16.6623 80.1057 15.566 80.1057 13.9959C80.1057 12.4259 81.1287 11.2943 82.5939 11.2943C84.0591 11.2943 85.1173 12.4229 85.1173 13.9783C85.1173 15.5337 84.0562 16.6623 82.5939 16.6623Z" fill="black"/>
<path d="M47.138 11.4342C48.2871 11.4342 49.2221 12.3692 49.2221 13.5183V18.846H52.2456V12.8891C52.2456 10.3591 50.6374 8.78687 48.0495 8.78687C46.4413 8.78687 45.2936 9.50627 44.6373 10.9245L44.4598 11.3073L44.3176 10.9099C43.8145 9.50113 42.7497 8.78613 41.1532 8.78613C39.908 8.78613 38.855 9.1924 38.3416 10.1105C38.1715 10.4156 38.0894 10.6972 38.0894 10.6972V9.10807H34.9478V18.846H37.9984L38.0901 13.2316C38.2309 12.2108 39.0148 11.4342 40.0613 11.4342C41.2104 11.4342 42.1454 12.3692 42.1454 13.5183V18.846H45.0758V13.2243C45.2166 12.2035 46.0922 11.4342 47.138 11.4342Z" fill="black"/>
<path d="M58.8691 8.72559C55.8162 8.72559 53.5143 11.0393 53.5143 14.1068C53.5143 17.1743 55.8492 19.4169 59.1932 19.4169C61.5457 19.4169 63.1129 18.2457 63.7956 17.1494L64.0061 16.8106L61.7152 15.6182C61.3566 16.3097 60.4069 16.8047 59.2885 16.8047C57.8629 16.8047 56.7065 16.001 56.7065 15.0095H56.7094V15.0066H64.0948L64.1454 14.5842C64.1674 14.3987 64.1674 14.2227 64.1674 14.0525C64.1674 10.8156 62.0877 8.72412 58.8691 8.72412V8.72559ZM61.0537 13.0376H56.7065C56.7065 13.0376 56.7065 13.0347 56.7065 13.0332C56.7065 12.0637 57.6796 11.2776 58.8801 11.2776C60.0805 11.2776 61.0537 12.0637 61.0537 13.0332C61.0537 13.0332 61.0537 13.0361 61.0537 13.0376Z" fill="black"/>
</g>
<defs>
<linearGradient id="paint0_linear_288_123" x1="10.4052" y1="10.6745" x2="10.4052" y2="0.245754" gradientUnits="userSpaceOnUse">
<stop offset="0.13" stop-color="#172881"/>
<stop offset="0.17" stop-color="#192987" stop-opacity="0.95"/>
<stop offset="0.56" stop-color="#2F3CC4" stop-opacity="0.44"/>
<stop offset="0.85" stop-color="#3C47EA" stop-opacity="0.12"/>
<stop offset="1" stop-color="#424CF9" stop-opacity="0"/>
</linearGradient>
<linearGradient id="paint1_linear_288_123" x1="14.4862" y1="15.3231" x2="14.4862" y2="25.7518" gradientUnits="userSpaceOnUse">
<stop offset="0.13" stop-color="#172881"/>
<stop offset="0.17" stop-color="#192987" stop-opacity="0.95"/>
<stop offset="0.56" stop-color="#2F3CC4" stop-opacity="0.44"/>
<stop offset="0.85" stop-color="#3C47EA" stop-opacity="0.12"/>
<stop offset="1" stop-color="#424CF9" stop-opacity="0"/>
</linearGradient>
<clipPath id="clip0_288_123">
<rect width="88" height="24.9773" fill="white" transform="translate(0 0.51123)"/>
</clipPath>
</defs>
</svg>
