<svg width="1720" height="340" viewBox="0 0 1720 340" fill="none" xmlns="http://www.w3.org/2000/svg">
<rect x="2" y="2" width="1716" height="336" rx="18" fill="#F6F8FA"/>
<path d="M80 151.44C71.92 151.44 65.72 149.04 61.4 144.24C57.08 139.36 54.92 132.6 54.92 123.96V75.24H66.56H67.76V76.32C67.28 76.8 66.96 77.32 66.8 77.88C66.72 78.44 66.68 79.4 66.68 80.76V124.08C66.68 129.52 67.64 133.84 69.56 137.04C71.56 140.24 75.08 141.84 80.12 141.84C85.24 141.84 88.8 140.24 90.8 137.04C92.8 133.84 93.8 129.4 93.8 123.72V75.24H105.44V123.6C105.44 130 104.36 135.24 102.2 139.32C100.04 143.4 97.04 146.44 93.2 148.44C89.44 150.44 85.04 151.44 80 151.44ZM139.28 151.32C134.32 151.32 129.72 150.56 125.48 149.04C121.32 147.52 117.76 145.24 114.8 142.2L120.68 132.24L121.28 131.16L122.24 131.76C122.4 132.32 122.6 132.92 122.84 133.56C123.08 134.2 123.68 135 124.64 135.96C126.64 137.48 128.92 138.76 131.48 139.8C134.04 140.76 136.84 141.24 139.88 141.24C141.96 141.24 143.8 141 145.4 140.52C147.08 139.96 148.52 139.24 149.72 138.36C151 137.4 151.96 136.28 152.6 135C153.24 133.64 153.56 132.16 153.56 130.56C153.56 129.44 153.44 128.4 153.2 127.44C152.96 126.4 152.52 125.48 151.88 124.68C151.24 123.8 150.32 122.92 149.12 122.04C148 121.16 146.52 120.24 144.68 119.28C142.84 118.24 140.64 117.16 138.08 116.04C132.88 113.8 128.76 111.56 125.72 109.32C122.76 107 120.64 104.52 119.36 101.88C118.08 99.16 117.44 96.2 117.44 93C117.44 89.32 118.44 86.08 120.44 83.28C122.44 80.4 125.2 78.16 128.72 76.56C132.32 74.88 136.4 74.04 140.96 74.04C144 74.04 146.84 74.44 149.48 75.24C152.12 75.96 154.6 77.04 156.92 78.48C159.24 79.84 161.32 81.56 163.16 83.64L156.2 91.8L155.48 92.76L154.64 92.04C154.56 91.4 154.4 90.76 154.16 90.12C154 89.48 153.48 88.68 152.6 87.72C150.92 86.2 149.12 85.16 147.2 84.6C145.36 84.04 143.16 83.76 140.6 83.76C138.92 83.76 137.36 84 135.92 84.48C134.56 84.88 133.36 85.52 132.32 86.4C131.36 87.2 130.6 88.12 130.04 89.16C129.56 90.2 129.32 91.32 129.32 92.52C129.32 93.64 129.44 94.64 129.68 95.52C129.92 96.4 130.36 97.28 131 98.16C131.72 99.04 132.68 99.96 133.88 100.92C135.16 101.8 136.76 102.76 138.68 103.8C140.6 104.76 142.96 105.84 145.76 107.04C149.52 108.72 152.64 110.36 155.12 111.96C157.68 113.56 159.68 115.24 161.12 117C162.64 118.68 163.72 120.56 164.36 122.64C165 124.64 165.32 126.92 165.32 129.48C165.32 133.08 164.4 136.56 162.56 139.92C160.8 143.2 158 145.92 154.16 148.08C150.32 150.24 145.36 151.32 139.28 151.32ZM236.48 150V75.12H284.12V84.96H247.88V106.08H277.76V116.04H247.88V140.16H283.88V150H236.48ZM314.24 151.32C308.08 151.32 303.28 149.92 299.84 147.12C296.48 144.24 294.8 140.52 294.8 135.96C294.8 132.92 295.48 130.2 296.84 127.8C298.28 125.32 300.28 123.2 302.84 121.44C305.48 119.68 308.64 118.32 312.32 117.36C316 116.32 320.16 115.8 324.8 115.8C325.76 115.8 326.76 115.84 327.8 115.92C328.92 115.92 330.08 115.96 331.28 116.04C332.56 116.12 333.84 116.2 335.12 116.28L335.48 124.8C334.36 124.64 333.16 124.52 331.88 124.44C330.68 124.36 329.48 124.32 328.28 124.32C327.08 124.32 325.96 124.32 324.92 124.32C321.8 124.32 319.08 124.56 316.76 125.04C314.52 125.44 312.64 126.08 311.12 126.96C309.68 127.84 308.6 128.92 307.88 130.2C307.16 131.48 306.8 132.96 306.8 134.64C306.8 136 307.04 137.2 307.52 138.24C308 139.2 308.64 139.96 309.44 140.52C310.32 141.08 311.32 141.52 312.44 141.84C313.64 142.08 314.92 142.2 316.28 142.2C318.92 142.2 321.24 141.76 323.24 140.88C325.24 140 326.92 138.72 328.28 137.04C329.72 135.28 330.8 133.12 331.52 130.56C332.24 127.92 332.6 124.84 332.6 121.32C332.6 116.44 332.04 112.64 330.92 109.92C329.88 107.2 328.32 105.32 326.24 104.28C324.16 103.24 321.56 102.72 318.44 102.72C315.88 102.72 313.4 103.16 311 104.04C308.68 104.84 306.4 106.36 304.16 108.6L297.8 101.4C300.84 98.52 304.16 96.44 307.76 95.16C311.44 93.88 315.2 93.24 319.04 93.24C322.56 93.24 325.8 93.68 328.76 94.56C331.8 95.36 334.44 96.72 336.68 98.64C339 100.56 340.76 103.16 341.96 106.44C343.24 109.72 343.88 113.88 343.88 118.92V150H331.4V143.16C330.36 144.76 329.2 146.12 327.92 147.24C326.64 148.28 325.24 149.12 323.72 149.76C322.28 150.32 320.76 150.72 319.16 150.96C317.56 151.2 315.92 151.32 314.24 151.32ZM380.84 151.32C377.48 151.32 374.32 151 371.36 150.36C368.4 149.72 365.6 148.76 362.96 147.48C360.4 146.2 358.04 144.56 355.88 142.56L361.4 132.48L362.12 131.4L362.96 131.88C363.12 132.52 363.32 133.2 363.56 133.92C363.8 134.56 364.36 135.36 365.24 136.32C367.16 138 369.36 139.36 371.84 140.4C374.32 141.36 377.36 141.84 380.96 141.84C383.44 141.84 385.52 141.56 387.2 141C388.96 140.36 390.32 139.52 391.28 138.48C392.24 137.36 392.72 136.12 392.72 134.76C392.72 133.72 392.44 132.84 391.88 132.12C391.4 131.32 390.64 130.6 389.6 129.96C388.56 129.24 387.2 128.56 385.52 127.92C383.84 127.2 381.8 126.52 379.4 125.88C375.32 124.68 371.76 123.32 368.72 121.8C365.68 120.2 363.32 118.32 361.64 116.16C359.96 114 359.12 111.44 359.12 108.48C359.12 105.52 359.96 102.92 361.64 100.68C363.4 98.36 365.88 96.52 369.08 95.16C372.28 93.8 376.08 93.12 380.48 93.12C382.88 93.12 385.12 93.32 387.2 93.72C389.36 94.04 391.32 94.56 393.08 95.28C394.92 96 396.64 96.92 398.24 98.04C399.84 99.08 401.36 100.32 402.8 101.76L396.68 109.92L395.96 110.88L395.12 110.16C395.04 109.52 394.84 108.92 394.52 108.36C394.28 107.8 393.72 107.08 392.84 106.2C391.08 104.92 389.16 103.96 387.08 103.32C385 102.68 382.88 102.36 380.72 102.36C377.92 102.36 375.44 102.84 373.28 103.8C371.2 104.76 370.16 106.2 370.16 108.12C370.16 109.24 370.6 110.28 371.48 111.24C372.44 112.2 373.96 113.16 376.04 114.12C378.12 115 380.96 115.92 384.56 116.88C389.12 118.08 392.8 119.48 395.6 121.08C398.4 122.6 400.44 124.4 401.72 126.48C403.08 128.56 403.76 131 403.76 133.8C403.76 136.92 402.88 139.84 401.12 142.56C399.44 145.2 396.88 147.32 393.44 148.92C390 150.52 385.8 151.32 380.84 151.32ZM445.88 151.08C442.6 151.08 439.76 150.56 437.36 149.52C435.04 148.4 433.16 146.64 431.72 144.24C430.36 141.84 429.4 138.72 428.84 134.88C428.28 131.04 428.08 126.36 428.24 120.84L429.8 81L442.04 79.44L443.24 79.32L443.36 80.4C442.96 80.96 442.6 81.52 442.28 82.08C442.04 82.64 441.84 83.6 441.68 84.96L440.48 100.44L440.96 101.76L440.12 120.84C439.88 126.28 440.04 130.52 440.6 133.56C441.16 136.52 442.12 138.6 443.48 139.8C444.84 140.92 446.48 141.48 448.4 141.48C450.96 141.48 453.24 140.96 455.24 139.92C457.32 138.88 459.36 137.6 461.36 136.08L464 144.96C461.28 146.96 458.44 148.48 455.48 149.52C452.52 150.56 449.32 151.08 445.88 151.08ZM417.44 94.44H459.32L459.2 104.04H417.44V94.44ZM577.52 162.84C570.16 159.56 563.92 155.28 558.8 150C553.68 144.72 549.76 138.8 547.04 132.24C544.4 125.6 543.08 118.72 543.08 111.6C543.08 104.48 544.4 97.72 547.04 91.32C549.68 84.84 553.52 79.04 558.56 73.92C563.6 68.8 569.68 64.64 576.8 61.44L579.8 71.4C575.88 73.48 572.36 75.92 569.24 78.72C566.2 81.52 563.56 84.64 561.32 88.08C559.16 91.52 557.48 95.24 556.28 99.24C555.16 103.24 554.6 107.48 554.6 111.96C554.6 116.44 555.2 120.72 556.4 124.8C557.6 128.8 559.32 132.6 561.56 136.2C563.8 139.72 566.52 142.92 569.72 145.8C572.92 148.68 576.56 151.12 580.64 153.12L577.52 162.84ZM620.12 151.32C614.2 151.32 609.16 149.84 605 146.88C600.92 143.92 597.84 139.56 595.76 133.8C593.68 128.04 592.64 121.04 592.64 112.8C592.64 104.72 593.68 97.84 595.76 92.16C597.84 86.4 600.92 82 605 78.96C609.16 75.92 614.2 74.4 620.12 74.4C626.12 74.4 631.16 75.92 635.24 78.96C639.32 82 642.4 86.4 644.48 92.16C646.64 97.84 647.72 104.72 647.72 112.8C647.72 121.04 646.64 128.04 644.48 133.8C642.4 139.56 639.32 143.92 635.24 146.88C631.16 149.84 626.12 151.32 620.12 151.32ZM620.12 141.6C623.4 141.6 626.2 140.52 628.52 138.36C630.84 136.2 632.64 133 633.92 128.76C635.2 124.44 635.84 119.08 635.84 112.68C635.84 106.68 635.2 101.56 633.92 97.32C632.64 93.08 630.84 89.84 628.52 87.6C626.2 85.28 623.4 84.12 620.12 84.12C616.84 84.12 614 85.28 611.6 87.6C609.28 89.84 607.52 93.08 606.32 97.32C605.12 101.56 604.52 106.68 604.52 112.68C604.52 119.08 605.12 124.44 606.32 128.76C607.52 133 609.28 136.2 611.6 138.36C614 140.52 616.84 141.6 620.12 141.6ZM657.32 69.72H669.08H670.28V70.8C669.8 71.28 669.48 71.8 669.32 72.36C669.24 72.92 669.2 73.88 669.2 75.24V102.6C670.56 100.6 672.16 98.92 674 97.56C675.92 96.12 677.88 95.04 679.88 94.32C681.96 93.52 684.04 93.12 686.12 93.12C689.64 93.12 692.68 93.92 695.24 95.52C697.88 97.12 699.92 99.64 701.36 103.08C702.8 106.44 703.52 110.92 703.52 116.52V150H691.76V116.64C691.76 113.2 691.4 110.48 690.68 108.48C689.96 106.4 688.96 104.92 687.68 104.04C686.4 103.08 684.88 102.6 683.12 102.6C681.68 102.6 680.28 102.84 678.92 103.32C677.64 103.8 676.4 104.48 675.2 105.36C674 106.16 672.96 107.2 672.08 108.48C671.2 109.76 670.48 111.2 669.92 112.8C669.44 114.4 669.2 116.16 669.2 118.08V150H657.32V69.72ZM720.8 150V140.52H734.6V103.92H721.4V94.44H746.6V140.52H759.2V150H720.8ZM739.88 84.48C737.72 84.48 735.88 83.76 734.36 82.32C732.92 80.8 732.2 79.04 732.2 77.04C732.2 74.88 732.92 73.08 734.36 71.64C735.8 70.2 737.64 69.48 739.88 69.48C741.96 69.48 743.76 70.24 745.28 71.76C746.88 73.28 747.68 75.04 747.68 77.04C747.68 79.04 746.88 80.8 745.28 82.32C743.76 83.76 741.96 84.48 739.88 84.48ZM800 151.2C794.96 151.2 790.48 150 786.56 147.6C782.64 145.12 779.52 141.72 777.2 137.4C774.88 133 773.72 127.96 773.72 122.28C773.72 116.68 774.88 111.72 777.2 107.4C779.52 103 782.64 99.56 786.56 97.08C790.48 94.52 794.96 93.24 800 93.24C804.96 93.24 809.4 94.52 813.32 97.08C817.32 99.56 820.48 103 822.8 107.4C825.12 111.72 826.28 116.68 826.28 122.28C826.28 127.88 825.12 132.88 822.8 137.28C820.48 141.6 817.32 145 813.32 147.48C809.4 149.96 804.96 151.2 800 151.2ZM800 141.48C802.72 141.48 805.12 140.68 807.2 139.08C809.36 137.4 811.04 135.12 812.24 132.24C813.44 129.36 814.04 126 814.04 122.16C814.04 118.24 813.44 114.84 812.24 111.96C811.04 109.08 809.36 106.84 807.2 105.24C805.12 103.64 802.72 102.84 800 102.84C797.28 102.84 794.84 103.64 792.68 105.24C790.6 106.84 788.96 109.08 787.76 111.96C786.56 114.84 785.96 118.24 785.96 122.16C785.96 126 786.56 129.36 787.76 132.24C788.96 135.12 790.6 137.4 792.68 139.08C794.84 140.68 797.28 141.48 800 141.48ZM845.84 162.84L842.72 153.12C846.8 151.12 850.44 148.68 853.64 145.8C856.84 142.92 859.56 139.72 861.8 136.2C864.04 132.6 865.76 128.8 866.96 124.8C868.16 120.72 868.76 116.44 868.76 111.96C868.76 107.48 868.16 103.24 866.96 99.24C865.84 95.24 864.16 91.52 861.92 88.08C859.76 84.64 857.12 81.52 854 78.72C850.96 75.92 847.48 73.48 843.56 71.4L846.56 61.44C853.76 64.64 859.84 68.8 864.8 73.92C869.84 79.04 873.68 84.84 876.32 91.32C878.96 97.72 880.28 104.48 880.28 111.6C880.28 118.72 878.92 125.6 876.2 132.24C873.56 138.8 869.68 144.72 864.56 150C859.44 155.28 853.2 159.56 845.84 162.84Z" fill="#282828"/>
<path d="M67.2 277.88C65.7067 277.88 64.2933 277.667 62.96 277.24C61.68 276.867 60.5067 276.253 59.44 275.4C58.3733 274.547 57.44 273.48 56.64 272.2C55.8933 270.92 55.3067 269.373 54.88 267.56C54.5067 265.747 54.32 263.693 54.32 261.4L54.4 239.96H62.24V261.4C62.24 263.267 62.4 264.867 62.72 266.2C63.0933 267.48 63.5733 268.52 64.16 269.32C64.8 270.12 65.52 270.707 66.32 271.08C67.12 271.4 67.9733 271.56 68.88 271.56C70.0533 271.56 71.1467 271.347 72.16 270.92C73.1733 270.493 74.0533 269.853 74.8 269C75.6 268.093 76.1867 266.973 76.56 265.64C76.9867 264.253 77.2 262.653 77.2 260.84V239.96H85.2V271.16C85.2 272.227 85.2267 273.24 85.28 274.2C85.3867 275.107 85.6267 276.04 86 277H78.56C78.2933 276.413 78.1067 275.853 78 275.32C77.8933 274.733 77.8133 274.173 77.76 273.64C77.76 273.053 77.76 272.467 77.76 271.88C77.2267 272.893 76.56 273.773 75.76 274.52C75.0133 275.267 74.16 275.907 73.2 276.44C72.2933 276.92 71.3333 277.267 70.32 277.48C69.36 277.747 68.32 277.88 67.2 277.88ZM110.56 277.88C108.32 277.88 106.213 277.667 104.24 277.24C102.267 276.813 100.4 276.173 98.64 275.32C96.9333 274.467 95.36 273.373 93.92 272.04L97.6 265.32L98.08 264.6L98.64 264.92C98.7467 265.347 98.88 265.8 99.04 266.28C99.2 266.707 99.5733 267.24 100.16 267.88C101.44 269 102.907 269.907 104.56 270.6C106.213 271.24 108.24 271.56 110.64 271.56C112.293 271.56 113.68 271.373 114.8 271C115.973 270.573 116.88 270.013 117.52 269.32C118.16 268.573 118.48 267.747 118.48 266.84C118.48 266.147 118.293 265.56 117.92 265.08C117.6 264.547 117.093 264.067 116.4 263.64C115.707 263.16 114.8 262.707 113.68 262.28C112.56 261.8 111.2 261.347 109.6 260.92C106.88 260.12 104.507 259.213 102.48 258.2C100.453 257.133 98.88 255.88 97.76 254.44C96.64 253 96.08 251.293 96.08 249.32C96.08 247.347 96.64 245.613 97.76 244.12C98.9333 242.573 100.587 241.347 102.72 240.44C104.853 239.533 107.387 239.08 110.32 239.08C111.92 239.08 113.413 239.213 114.8 239.48C116.24 239.693 117.547 240.04 118.72 240.52C119.947 241 121.093 241.613 122.16 242.36C123.227 243.053 124.24 243.88 125.2 244.84L121.12 250.28L120.64 250.92L120.08 250.44C120.027 250.013 119.893 249.613 119.68 249.24C119.52 248.867 119.147 248.387 118.56 247.8C117.387 246.947 116.107 246.307 114.72 245.88C113.333 245.453 111.92 245.24 110.48 245.24C108.613 245.24 106.96 245.56 105.52 246.2C104.133 246.84 103.44 247.8 103.44 249.08C103.44 249.827 103.733 250.52 104.32 251.16C104.96 251.8 105.973 252.44 107.36 253.08C108.747 253.667 110.64 254.28 113.04 254.92C116.08 255.72 118.533 256.653 120.4 257.72C122.267 258.733 123.627 259.933 124.48 261.32C125.387 262.707 125.84 264.333 125.84 266.2C125.84 268.28 125.253 270.227 124.08 272.04C122.96 273.8 121.253 275.213 118.96 276.28C116.667 277.347 113.867 277.88 110.56 277.88ZM138.56 255V248.28H161.6V255H138.56ZM191.68 277.88C189.013 277.88 186.56 277.453 184.32 276.6C182.08 275.747 180.133 274.52 178.48 272.92C176.88 271.267 175.627 269.24 174.72 266.84C173.813 264.44 173.36 261.72 173.36 258.68C173.36 255.587 173.813 252.84 174.72 250.44C175.627 247.987 176.853 245.933 178.4 244.28C180 242.627 181.84 241.347 183.92 240.44C186.053 239.533 188.32 239.08 190.72 239.08C192.8 239.08 194.773 239.453 196.64 240.2C198.56 240.947 200.213 242.067 201.6 243.56C203.04 245 204.16 246.84 204.96 249.08C205.813 251.32 206.24 253.933 206.24 256.92C206.24 257.453 206.24 258.067 206.24 258.76C206.24 259.4 206.213 259.96 206.16 260.44H181.04C181.147 262.36 181.52 264.04 182.16 265.48C182.8 266.867 183.6 268.013 184.56 268.92C185.573 269.827 186.72 270.493 188 270.92C189.28 271.347 190.613 271.56 192 271.56C193.227 271.56 194.347 271.453 195.36 271.24C196.427 270.973 197.44 270.573 198.4 270.04C199.36 269.507 200.24 268.787 201.04 267.88L205.2 271.96C204.08 273.293 202.827 274.413 201.44 275.32C200.053 276.173 198.533 276.813 196.88 277.24C195.28 277.667 193.547 277.88 191.68 277.88ZM181.2 254.44H198.48C198.48 252.947 198.293 251.64 197.92 250.52C197.547 249.4 196.987 248.44 196.24 247.64C195.547 246.84 194.693 246.253 193.68 245.88C192.667 245.453 191.547 245.24 190.32 245.24C189.147 245.24 188.053 245.427 187.04 245.8C186.08 246.173 185.2 246.733 184.4 247.48C183.6 248.227 182.907 249.187 182.32 250.36C181.787 251.48 181.413 252.84 181.2 254.44ZM226.16 277.88C222.053 277.88 218.853 276.947 216.56 275.08C214.32 273.16 213.2 270.68 213.2 267.64C213.2 265.613 213.653 263.8 214.56 262.2C215.52 260.547 216.853 259.133 218.56 257.96C220.32 256.787 222.427 255.88 224.88 255.24C227.333 254.547 230.107 254.2 233.2 254.2C233.84 254.2 234.507 254.227 235.2 254.28C235.947 254.28 236.72 254.307 237.52 254.36C238.373 254.413 239.227 254.467 240.08 254.52L240.32 260.2C239.573 260.093 238.773 260.013 237.92 259.96C237.12 259.907 236.32 259.88 235.52 259.88C234.72 259.88 233.973 259.88 233.28 259.88C231.2 259.88 229.387 260.04 227.84 260.36C226.347 260.627 225.093 261.053 224.08 261.64C223.12 262.227 222.4 262.947 221.92 263.8C221.44 264.653 221.2 265.64 221.2 266.76C221.2 267.667 221.36 268.467 221.68 269.16C222 269.8 222.427 270.307 222.96 270.68C223.547 271.053 224.213 271.347 224.96 271.56C225.76 271.72 226.613 271.8 227.52 271.8C229.28 271.8 230.827 271.507 232.16 270.92C233.493 270.333 234.613 269.48 235.52 268.36C236.48 267.187 237.2 265.747 237.68 264.04C238.16 262.28 238.4 260.227 238.4 257.88C238.4 254.627 238.027 252.093 237.28 250.28C236.587 248.467 235.547 247.213 234.16 246.52C232.773 245.827 231.04 245.48 228.96 245.48C227.253 245.48 225.6 245.773 224 246.36C222.453 246.893 220.933 247.907 219.44 249.4L215.2 244.6C217.227 242.68 219.44 241.293 221.84 240.44C224.293 239.587 226.8 239.16 229.36 239.16C231.707 239.16 233.867 239.453 235.84 240.04C237.867 240.573 239.627 241.48 241.12 242.76C242.667 244.04 243.84 245.773 244.64 247.96C245.493 250.147 245.92 252.92 245.92 256.28V277H237.6V272.44C236.907 273.507 236.133 274.413 235.28 275.16C234.427 275.853 233.493 276.413 232.48 276.84C231.52 277.213 230.507 277.48 229.44 277.64C228.373 277.8 227.28 277.88 226.16 277.88ZM270.56 277.88C268.32 277.88 266.213 277.667 264.24 277.24C262.267 276.813 260.4 276.173 258.64 275.32C256.933 274.467 255.36 273.373 253.92 272.04L257.6 265.32L258.08 264.6L258.64 264.92C258.747 265.347 258.88 265.8 259.04 266.28C259.2 266.707 259.573 267.24 260.16 267.88C261.44 269 262.907 269.907 264.56 270.6C266.213 271.24 268.24 271.56 270.64 271.56C272.293 271.56 273.68 271.373 274.8 271C275.973 270.573 276.88 270.013 277.52 269.32C278.16 268.573 278.48 267.747 278.48 266.84C278.48 266.147 278.293 265.56 277.92 265.08C277.6 264.547 277.093 264.067 276.4 263.64C275.707 263.16 274.8 262.707 273.68 262.28C272.56 261.8 271.2 261.347 269.6 260.92C266.88 260.12 264.507 259.213 262.48 258.2C260.453 257.133 258.88 255.88 257.76 254.44C256.64 253 256.08 251.293 256.08 249.32C256.08 247.347 256.64 245.613 257.76 244.12C258.933 242.573 260.587 241.347 262.72 240.44C264.853 239.533 267.387 239.08 270.32 239.08C271.92 239.08 273.413 239.213 274.8 239.48C276.24 239.693 277.547 240.04 278.72 240.52C279.947 241 281.093 241.613 282.16 242.36C283.227 243.053 284.24 243.88 285.2 244.84L281.12 250.28L280.64 250.92L280.08 250.44C280.027 250.013 279.893 249.613 279.68 249.24C279.52 248.867 279.147 248.387 278.56 247.8C277.387 246.947 276.107 246.307 274.72 245.88C273.333 245.453 271.92 245.24 270.48 245.24C268.613 245.24 266.96 245.56 265.52 246.2C264.133 246.84 263.44 247.8 263.44 249.08C263.44 249.827 263.733 250.52 264.32 251.16C264.96 251.8 265.973 252.44 267.36 253.08C268.747 253.667 270.64 254.28 273.04 254.92C276.08 255.72 278.533 256.653 280.4 257.72C282.267 258.733 283.627 259.933 284.48 261.32C285.387 262.707 285.84 264.333 285.84 266.2C285.84 268.28 285.253 270.227 284.08 272.04C282.96 273.8 281.253 275.213 278.96 276.28C276.667 277.347 273.867 277.88 270.56 277.88ZM313.92 277.72C311.733 277.72 309.84 277.373 308.24 276.68C306.693 275.933 305.44 274.76 304.48 273.16C303.573 271.56 302.933 269.48 302.56 266.92C302.187 264.36 302.053 261.24 302.16 257.56L303.2 231L311.36 229.96L312.16 229.88L312.24 230.6C311.973 230.973 311.733 231.347 311.52 231.72C311.36 232.093 311.227 232.733 311.12 233.64L310.32 243.96L310.64 244.84L310.08 257.56C309.92 261.187 310.027 264.013 310.4 266.04C310.773 268.013 311.413 269.4 312.32 270.2C313.227 270.947 314.32 271.32 315.6 271.32C317.307 271.32 318.827 270.973 320.16 270.28C321.547 269.587 322.907 268.733 324.24 267.72L326 273.64C324.187 274.973 322.293 275.987 320.32 276.68C318.347 277.373 316.213 277.72 313.92 277.72ZM294.96 239.96H322.88L322.8 246.36H294.96V239.96ZM338.56 255V248.28H361.6V255H338.56ZM375.04 271.08C378.027 268.093 380.72 265.427 383.12 263.08C385.52 260.68 387.627 258.52 389.44 256.6C391.307 254.627 392.853 252.813 394.08 251.16C395.307 249.453 396.213 247.773 396.8 246.12C397.44 244.467 397.76 242.707 397.76 240.84C397.76 239.507 397.573 238.36 397.2 237.4C396.88 236.44 396.4 235.667 395.76 235.08C395.12 234.44 394.32 233.987 393.36 233.72C392.453 233.4 391.413 233.24 390.24 233.24C389.067 233.24 387.947 233.4 386.88 233.72C385.867 233.987 384.88 234.44 383.92 235.08C383.013 235.667 382.16 236.44 381.36 237.4C380.827 238.147 380.507 238.707 380.4 239.08C380.293 239.453 380.267 239.853 380.32 240.28L379.92 240.84L379.28 240.44L373.84 236.2C374.96 234.12 376.347 232.36 378 230.92C379.707 229.48 381.6 228.413 383.68 227.72C385.76 226.973 387.947 226.6 390.24 226.6C393.173 226.6 395.76 227.187 398 228.36C400.293 229.533 402.107 231.187 403.44 233.32C404.773 235.453 405.44 237.987 405.44 240.92C405.44 243 405.093 245 404.4 246.92C403.76 248.84 402.827 250.733 401.6 252.6C400.373 254.413 398.933 256.253 397.28 258.12C395.627 259.987 393.787 261.933 391.76 263.96C389.733 265.987 387.573 268.147 385.28 270.44H401.92C402.827 270.44 403.467 270.387 403.84 270.28C404.213 270.173 404.56 269.987 404.88 269.72H405.6V270.44V277H375.04V271.08Z" fill="#282828"/>
<path d="M1503.33 170H1636.67M1578.33 111.667L1636.67 170L1578.33 228.333" stroke="#282828" stroke-width="16.6667" stroke-linecap="round" stroke-linejoin="round"/>
<rect x="2" y="2" width="1716" height="336" rx="18" stroke="#282828" stroke-width="4"/>
</svg>
