<svg width="1720" height="340" viewBox="0 0 1720 340" fill="none" xmlns="http://www.w3.org/2000/svg">
<rect x="2" y="2" width="1716" height="336" rx="18" fill="#F6F8FA"/>
<path d="M80 151.44C71.92 151.44 65.72 149.04 61.4 144.24C57.08 139.36 54.92 132.6 54.92 123.96V75.24H66.56H67.76V76.32C67.28 76.8 66.96 77.32 66.8 77.88C66.72 78.44 66.68 79.4 66.68 80.76V124.08C66.68 129.52 67.64 133.84 69.56 137.04C71.56 140.24 75.08 141.84 80.12 141.84C85.24 141.84 88.8 140.24 90.8 137.04C92.8 133.84 93.8 129.4 93.8 123.72V75.24H105.44V123.6C105.44 130 104.36 135.24 102.2 139.32C100.04 143.4 97.04 146.44 93.2 148.44C89.44 150.44 85.04 151.44 80 151.44ZM139.28 151.32C134.32 151.32 129.72 150.56 125.48 149.04C121.32 147.52 117.76 145.24 114.8 142.2L120.68 132.24L121.28 131.16L122.24 131.76C122.4 132.32 122.6 132.92 122.84 133.56C123.08 134.2 123.68 135 124.64 135.96C126.64 137.48 128.92 138.76 131.48 139.8C134.04 140.76 136.84 141.24 139.88 141.24C141.96 141.24 143.8 141 145.4 140.52C147.08 139.96 148.52 139.24 149.72 138.36C151 137.4 151.96 136.28 152.6 135C153.24 133.64 153.56 132.16 153.56 130.56C153.56 129.44 153.44 128.4 153.2 127.44C152.96 126.4 152.52 125.48 151.88 124.68C151.24 123.8 150.32 122.92 149.12 122.04C148 121.16 146.52 120.24 144.68 119.28C142.84 118.24 140.64 117.16 138.08 116.04C132.88 113.8 128.76 111.56 125.72 109.32C122.76 107 120.64 104.52 119.36 101.88C118.08 99.16 117.44 96.2 117.44 93C117.44 89.32 118.44 86.08 120.44 83.28C122.44 80.4 125.2 78.16 128.72 76.56C132.32 74.88 136.4 74.04 140.96 74.04C144 74.04 146.84 74.44 149.48 75.24C152.12 75.96 154.6 77.04 156.92 78.48C159.24 79.84 161.32 81.56 163.16 83.64L156.2 91.8L155.48 92.76L154.64 92.04C154.56 91.4 154.4 90.76 154.16 90.12C154 89.48 153.48 88.68 152.6 87.72C150.92 86.2 149.12 85.16 147.2 84.6C145.36 84.04 143.16 83.76 140.6 83.76C138.92 83.76 137.36 84 135.92 84.48C134.56 84.88 133.36 85.52 132.32 86.4C131.36 87.2 130.6 88.12 130.04 89.16C129.56 90.2 129.32 91.32 129.32 92.52C129.32 93.64 129.44 94.64 129.68 95.52C129.92 96.4 130.36 97.28 131 98.16C131.72 99.04 132.68 99.96 133.88 100.92C135.16 101.8 136.76 102.76 138.68 103.8C140.6 104.76 142.96 105.84 145.76 107.04C149.52 108.72 152.64 110.36 155.12 111.96C157.68 113.56 159.68 115.24 161.12 117C162.64 118.68 163.72 120.56 164.36 122.64C165 124.64 165.32 126.92 165.32 129.48C165.32 133.08 164.4 136.56 162.56 139.92C160.8 143.2 158 145.92 154.16 148.08C150.32 150.24 145.36 151.32 139.28 151.32ZM242.12 150L231.56 75.24H241.88L248 123.36L258.44 81H263.96L274.52 123.36L279.32 75.24H289.04L278.72 150H272L260.6 102.96L249.08 150H242.12ZM322.52 151.32C318.52 151.32 314.84 150.68 311.48 149.4C308.12 148.12 305.2 146.28 302.72 143.88C300.32 141.4 298.44 138.36 297.08 134.76C295.72 131.16 295.04 127.08 295.04 122.52C295.04 117.88 295.72 113.76 297.08 110.16C298.44 106.48 300.28 103.4 302.6 100.92C305 98.44 307.76 96.52 310.88 95.16C314.08 93.8 317.48 93.12 321.08 93.12C324.2 93.12 327.16 93.68 329.96 94.8C332.84 95.92 335.32 97.6 337.4 99.84C339.56 102 341.24 104.76 342.44 108.12C343.72 111.48 344.36 115.4 344.36 119.88C344.36 120.68 344.36 121.6 344.36 122.64C344.36 123.6 344.32 124.44 344.24 125.16H306.56C306.72 128.04 307.28 130.56 308.24 132.72C309.2 134.8 310.4 136.52 311.84 137.88C313.36 139.24 315.08 140.24 317 140.88C318.92 141.52 320.92 141.84 323 141.84C324.84 141.84 326.52 141.68 328.04 141.36C329.64 140.96 331.16 140.36 332.6 139.56C334.04 138.76 335.36 137.68 336.56 136.32L342.8 142.44C341.12 144.44 339.24 146.12 337.16 147.48C335.08 148.76 332.8 149.72 330.32 150.36C327.92 151 325.32 151.32 322.52 151.32ZM306.8 116.16H332.72C332.72 113.92 332.44 111.96 331.88 110.28C331.32 108.6 330.48 107.16 329.36 105.96C328.32 104.76 327.04 103.88 325.52 103.32C324 102.68 322.32 102.36 320.48 102.36C318.72 102.36 317.08 102.64 315.56 103.2C314.12 103.76 312.8 104.6 311.6 105.72C310.4 106.84 309.36 108.28 308.48 110.04C307.68 111.72 307.12 113.76 306.8 116.16ZM380.84 151.32C377.48 151.32 374.32 151 371.36 150.36C368.4 149.72 365.6 148.76 362.96 147.48C360.4 146.2 358.04 144.56 355.88 142.56L361.4 132.48L362.12 131.4L362.96 131.88C363.12 132.52 363.32 133.2 363.56 133.92C363.8 134.56 364.36 135.36 365.24 136.32C367.16 138 369.36 139.36 371.84 140.4C374.32 141.36 377.36 141.84 380.96 141.84C383.44 141.84 385.52 141.56 387.2 141C388.96 140.36 390.32 139.52 391.28 138.48C392.24 137.36 392.72 136.12 392.72 134.76C392.72 133.72 392.44 132.84 391.88 132.12C391.4 131.32 390.64 130.6 389.6 129.96C388.56 129.24 387.2 128.56 385.52 127.92C383.84 127.2 381.8 126.52 379.4 125.88C375.32 124.68 371.76 123.32 368.72 121.8C365.68 120.2 363.32 118.32 361.64 116.16C359.96 114 359.12 111.44 359.12 108.48C359.12 105.52 359.96 102.92 361.64 100.68C363.4 98.36 365.88 96.52 369.08 95.16C372.28 93.8 376.08 93.12 380.48 93.12C382.88 93.12 385.12 93.32 387.2 93.72C389.36 94.04 391.32 94.56 393.08 95.28C394.92 96 396.64 96.92 398.24 98.04C399.84 99.08 401.36 100.32 402.8 101.76L396.68 109.92L395.96 110.88L395.12 110.16C395.04 109.52 394.84 108.92 394.52 108.36C394.28 107.8 393.72 107.08 392.84 106.2C391.08 104.92 389.16 103.96 387.08 103.32C385 102.68 382.88 102.36 380.72 102.36C377.92 102.36 375.44 102.84 373.28 103.8C371.2 104.76 370.16 106.2 370.16 108.12C370.16 109.24 370.6 110.28 371.48 111.24C372.44 112.2 373.96 113.16 376.04 114.12C378.12 115 380.96 115.92 384.56 116.88C389.12 118.08 392.8 119.48 395.6 121.08C398.4 122.6 400.44 124.4 401.72 126.48C403.08 128.56 403.76 131 403.76 133.8C403.76 136.92 402.88 139.84 401.12 142.56C399.44 145.2 396.88 147.32 393.44 148.92C390 150.52 385.8 151.32 380.84 151.32ZM445.88 151.08C442.6 151.08 439.76 150.56 437.36 149.52C435.04 148.4 433.16 146.64 431.72 144.24C430.36 141.84 429.4 138.72 428.84 134.88C428.28 131.04 428.08 126.36 428.24 120.84L429.8 81L442.04 79.44L443.24 79.32L443.36 80.4C442.96 80.96 442.6 81.52 442.28 82.08C442.04 82.64 441.84 83.6 441.68 84.96L440.48 100.44L440.96 101.76L440.12 120.84C439.88 126.28 440.04 130.52 440.6 133.56C441.16 136.52 442.12 138.6 443.48 139.8C444.84 140.92 446.48 141.48 448.4 141.48C450.96 141.48 453.24 140.96 455.24 139.92C457.32 138.88 459.36 137.6 461.36 136.08L464 144.96C461.28 146.96 458.44 148.48 455.48 149.52C452.52 150.56 449.32 151.08 445.88 151.08ZM417.44 94.44H459.32L459.2 104.04H417.44V94.44ZM577.52 162.84C570.16 159.56 563.92 155.28 558.8 150C553.68 144.72 549.76 138.8 547.04 132.24C544.4 125.6 543.08 118.72 543.08 111.6C543.08 104.48 544.4 97.72 547.04 91.32C549.68 84.84 553.52 79.04 558.56 73.92C563.6 68.8 569.68 64.64 576.8 61.44L579.8 71.4C575.88 73.48 572.36 75.92 569.24 78.72C566.2 81.52 563.56 84.64 561.32 88.08C559.16 91.52 557.48 95.24 556.28 99.24C555.16 103.24 554.6 107.48 554.6 111.96C554.6 116.44 555.2 120.72 556.4 124.8C557.6 128.8 559.32 132.6 561.56 136.2C563.8 139.72 566.52 142.92 569.72 145.8C572.92 148.68 576.56 151.12 580.64 153.12L577.52 162.84ZM594.92 75.24H607.04L634.52 126.6L634.04 75.24H644.72H645.92V76.32C645.44 76.8 645.12 77.32 644.96 77.88C644.88 78.44 644.84 79.4 644.84 80.76V150H634.28L605.72 95.52V150H594.92V75.24ZM678.68 151.44C676.36 151.44 674.36 150.64 672.68 149.04C671.08 147.36 670.28 145.4 670.28 143.16C670.28 140.84 671.08 138.88 672.68 137.28C674.36 135.6 676.36 134.76 678.68 134.76C680.92 134.76 682.84 135.6 684.44 137.28C686.12 138.88 686.96 140.84 686.96 143.16C686.96 145.4 686.12 147.36 684.44 149.04C682.84 150.64 680.92 151.44 678.68 151.44ZM803.72 151.32C799.64 151.32 795.8 150.56 792.2 149.04C788.68 147.52 785.56 145.2 782.84 142.08C780.12 138.96 777.96 135 776.36 130.2C774.84 125.4 774.08 119.68 774.08 113.04C774.08 107.2 774.64 102.12 775.76 97.8C776.96 93.4 778.56 89.72 780.56 86.76C782.56 83.72 784.84 81.32 787.4 79.56C789.96 77.72 792.64 76.4 795.44 75.6C798.24 74.72 801.04 74.28 803.84 74.28C809.44 74.28 814.2 75.6 818.12 78.24C822.12 80.8 825.12 84.36 827.12 88.92L819.08 94.32L818.12 94.92L817.52 94.08C817.68 93.44 817.64 92.84 817.4 92.28C817.24 91.64 816.8 90.8 816.08 89.76C814.32 87.44 812.44 85.88 810.44 85.08C808.44 84.28 806.4 83.88 804.32 83.88C801.76 83.88 799.32 84.52 797 85.8C794.76 87 792.8 88.8 791.12 91.2C789.44 93.6 788.12 96.6 787.16 100.2C786.2 103.72 785.72 107.8 785.72 112.44C785.72 116.92 786.16 120.96 787.04 124.56C788 128.08 789.28 131.12 790.88 133.68C792.56 136.16 794.48 138.08 796.64 139.44C798.88 140.72 801.28 141.36 803.84 141.36C805.84 141.36 807.68 141.08 809.36 140.52C811.04 139.96 812.6 139.04 814.04 137.76C815.48 136.4 816.76 134.8 817.88 132.96L826.28 138.84C823.64 143.24 820.48 146.44 816.8 148.44C813.12 150.36 808.76 151.32 803.72 151.32ZM854.24 151.32C848.08 151.32 843.28 149.92 839.84 147.12C836.48 144.24 834.8 140.52 834.8 135.96C834.8 132.92 835.48 130.2 836.84 127.8C838.28 125.32 840.28 123.2 842.84 121.44C845.48 119.68 848.64 118.32 852.32 117.36C856 116.32 860.16 115.8 864.8 115.8C865.76 115.8 866.76 115.84 867.8 115.92C868.92 115.92 870.08 115.96 871.28 116.04C872.56 116.12 873.84 116.2 875.12 116.28L875.48 124.8C874.36 124.64 873.16 124.52 871.88 124.44C870.68 124.36 869.48 124.32 868.28 124.32C867.08 124.32 865.96 124.32 864.92 124.32C861.8 124.32 859.08 124.56 856.76 125.04C854.52 125.44 852.64 126.08 851.12 126.96C849.68 127.84 848.6 128.92 847.88 130.2C847.16 131.48 846.8 132.96 846.8 134.64C846.8 136 847.04 137.2 847.52 138.24C848 139.2 848.64 139.96 849.44 140.52C850.32 141.08 851.32 141.52 852.44 141.84C853.64 142.08 854.92 142.2 856.28 142.2C858.92 142.2 861.24 141.76 863.24 140.88C865.24 140 866.92 138.72 868.28 137.04C869.72 135.28 870.8 133.12 871.52 130.56C872.24 127.92 872.6 124.84 872.6 121.32C872.6 116.44 872.04 112.64 870.92 109.92C869.88 107.2 868.32 105.32 866.24 104.28C864.16 103.24 861.56 102.72 858.44 102.72C855.88 102.72 853.4 103.16 851 104.04C848.68 104.84 846.4 106.36 844.16 108.6L837.8 101.4C840.84 98.52 844.16 96.44 847.76 95.16C851.44 93.88 855.2 93.24 859.04 93.24C862.56 93.24 865.8 93.68 868.76 94.56C871.8 95.36 874.44 96.72 876.68 98.64C879 100.56 880.76 103.16 881.96 106.44C883.24 109.72 883.88 113.88 883.88 118.92V150H871.4V143.16C870.36 144.76 869.2 146.12 867.92 147.24C866.64 148.28 865.24 149.12 863.72 149.76C862.28 150.32 860.76 150.72 859.16 150.96C857.56 151.2 855.92 151.32 854.24 151.32ZM898.16 150V140.52H914V79.2H898.88V69.72H926.12V140.52H941.84V150H898.16ZM960.8 150V140.52H974.6V103.92H961.4V94.44H986.6V140.52H999.2V150H960.8ZM979.88 84.48C977.72 84.48 975.88 83.76 974.36 82.32C972.92 80.8 972.2 79.04 972.2 77.04C972.2 74.88 972.92 73.08 974.36 71.64C975.8 70.2 977.64 69.48 979.88 69.48C981.96 69.48 983.76 70.24 985.28 71.76C986.88 73.28 987.68 75.04 987.68 77.04C987.68 79.04 986.88 80.8 985.28 82.32C983.76 83.76 981.96 84.48 979.88 84.48ZM1027.52 103.92H1015.64V94.44H1027.52V90.72C1027.52 85.76 1028.52 81.68 1030.52 78.48C1032.6 75.2 1035.32 72.8 1038.68 71.28C1042.04 69.68 1045.72 68.88 1049.72 68.88C1053.4 68.88 1056.8 69.52 1059.92 70.8C1063.04 72.08 1065.72 74 1067.96 76.56L1062.92 84.84L1062.32 85.8L1061.48 85.32C1061.32 84.68 1061.08 84.04 1060.76 83.4C1060.52 82.76 1059.92 82 1058.96 81.12C1057.6 80.08 1056.28 79.36 1055 78.96C1053.72 78.56 1052.16 78.36 1050.32 78.36C1048.08 78.36 1046.12 78.8 1044.44 79.68C1042.84 80.48 1041.56 81.8 1040.6 83.64C1039.72 85.4 1039.28 87.76 1039.28 90.72V94.44H1056.56V103.92H1039.28V150H1027.52V103.92ZM1100 151.2C1094.96 151.2 1090.48 150 1086.56 147.6C1082.64 145.12 1079.52 141.72 1077.2 137.4C1074.88 133 1073.72 127.96 1073.72 122.28C1073.72 116.68 1074.88 111.72 1077.2 107.4C1079.52 103 1082.64 99.56 1086.56 97.08C1090.48 94.52 1094.96 93.24 1100 93.24C1104.96 93.24 1109.4 94.52 1113.32 97.08C1117.32 99.56 1120.48 103 1122.8 107.4C1125.12 111.72 1126.28 116.68 1126.28 122.28C1126.28 127.88 1125.12 132.88 1122.8 137.28C1120.48 141.6 1117.32 145 1113.32 147.48C1109.4 149.96 1104.96 151.2 1100 151.2ZM1100 141.48C1102.72 141.48 1105.12 140.68 1107.2 139.08C1109.36 137.4 1111.04 135.12 1112.24 132.24C1113.44 129.36 1114.04 126 1114.04 122.16C1114.04 118.24 1113.44 114.84 1112.24 111.96C1111.04 109.08 1109.36 106.84 1107.2 105.24C1105.12 103.64 1102.72 102.84 1100 102.84C1097.28 102.84 1094.84 103.64 1092.68 105.24C1090.6 106.84 1088.96 109.08 1087.76 111.96C1086.56 114.84 1085.96 118.24 1085.96 122.16C1085.96 126 1086.56 129.36 1087.76 132.24C1088.96 135.12 1090.6 137.4 1092.68 139.08C1094.84 140.68 1097.28 141.48 1100 141.48ZM1141.88 94.44H1154.24L1154 110.28L1152.56 108.96C1152.96 106.56 1153.72 104.4 1154.84 102.48C1155.96 100.48 1157.32 98.8 1158.92 97.44C1160.6 96.08 1162.44 95.04 1164.44 94.32C1166.44 93.52 1168.52 93.12 1170.68 93.12C1173.72 93.12 1176.48 93.64 1178.96 94.68C1181.44 95.72 1183.68 97.28 1185.68 99.36L1180.64 109.2L1180.16 110.28L1179.2 109.8C1178.96 109.16 1178.72 108.52 1178.48 107.88C1178.24 107.24 1177.64 106.48 1176.68 105.6C1175.48 104.8 1174.28 104.2 1173.08 103.8C1171.96 103.4 1170.64 103.2 1169.12 103.2C1167.2 103.2 1165.32 103.56 1163.48 104.28C1161.72 104.92 1160.12 105.96 1158.68 107.4C1157.24 108.84 1156.08 110.68 1155.2 112.92C1154.4 115.08 1154 117.72 1154 120.84V150.12H1141.88V94.44ZM1197.2 150V94.44H1209.2V102.96C1210.56 100.96 1212.08 99.24 1213.76 97.8C1215.44 96.36 1217.32 95.24 1219.4 94.44C1221.48 93.56 1223.72 93.12 1226.12 93.12C1229.24 93.12 1232.12 93.92 1234.76 95.52C1237.4 97.12 1239.52 99.64 1241.12 103.08C1242.72 106.44 1243.52 110.92 1243.52 116.52V150H1231.64V116.64C1231.64 113.36 1231.28 110.68 1230.56 108.6C1229.84 106.52 1228.8 105 1227.44 104.04C1226.16 103.08 1224.6 102.6 1222.76 102.6C1221.16 102.6 1219.56 102.96 1217.96 103.68C1216.36 104.4 1214.88 105.4 1213.52 106.68C1212.24 107.88 1211.2 109.4 1210.4 111.24C1209.6 113 1209.2 115 1209.2 117.24V150H1197.2ZM1260.8 150V140.52H1274.6V103.92H1261.4V94.44H1286.6V140.52H1299.2V150H1260.8ZM1279.88 84.48C1277.72 84.48 1275.88 83.76 1274.36 82.32C1272.92 80.8 1272.2 79.04 1272.2 77.04C1272.2 74.88 1272.92 73.08 1274.36 71.64C1275.8 70.2 1277.64 69.48 1279.88 69.48C1281.96 69.48 1283.76 70.24 1285.28 71.76C1286.88 73.28 1287.68 75.04 1287.68 77.04C1287.68 79.04 1286.88 80.8 1285.28 82.32C1283.76 83.76 1281.96 84.48 1279.88 84.48ZM1334.24 151.32C1328.08 151.32 1323.28 149.92 1319.84 147.12C1316.48 144.24 1314.8 140.52 1314.8 135.96C1314.8 132.92 1315.48 130.2 1316.84 127.8C1318.28 125.32 1320.28 123.2 1322.84 121.44C1325.48 119.68 1328.64 118.32 1332.32 117.36C1336 116.32 1340.16 115.8 1344.8 115.8C1345.76 115.8 1346.76 115.84 1347.8 115.92C1348.92 115.92 1350.08 115.96 1351.28 116.04C1352.56 116.12 1353.84 116.2 1355.12 116.28L1355.48 124.8C1354.36 124.64 1353.16 124.52 1351.88 124.44C1350.68 124.36 1349.48 124.32 1348.28 124.32C1347.08 124.32 1345.96 124.32 1344.92 124.32C1341.8 124.32 1339.08 124.56 1336.76 125.04C1334.52 125.44 1332.64 126.08 1331.12 126.96C1329.68 127.84 1328.6 128.92 1327.88 130.2C1327.16 131.48 1326.8 132.96 1326.8 134.64C1326.8 136 1327.04 137.2 1327.52 138.24C1328 139.2 1328.64 139.96 1329.44 140.52C1330.32 141.08 1331.32 141.52 1332.44 141.84C1333.64 142.08 1334.92 142.2 1336.28 142.2C1338.92 142.2 1341.24 141.76 1343.24 140.88C1345.24 140 1346.92 138.72 1348.28 137.04C1349.72 135.28 1350.8 133.12 1351.52 130.56C1352.24 127.92 1352.6 124.84 1352.6 121.32C1352.6 116.44 1352.04 112.64 1350.92 109.92C1349.88 107.2 1348.32 105.32 1346.24 104.28C1344.16 103.24 1341.56 102.72 1338.44 102.72C1335.88 102.72 1333.4 103.16 1331 104.04C1328.68 104.84 1326.4 106.36 1324.16 108.6L1317.8 101.4C1320.84 98.52 1324.16 96.44 1327.76 95.16C1331.44 93.88 1335.2 93.24 1339.04 93.24C1342.56 93.24 1345.8 93.68 1348.76 94.56C1351.8 95.36 1354.44 96.72 1356.68 98.64C1359 100.56 1360.76 103.16 1361.96 106.44C1363.24 109.72 1363.88 113.88 1363.88 118.92V150H1351.4V143.16C1350.36 144.76 1349.2 146.12 1347.92 147.24C1346.64 148.28 1345.24 149.12 1343.72 149.76C1342.28 150.32 1340.76 150.72 1339.16 150.96C1337.56 151.2 1335.92 151.32 1334.24 151.32ZM1385.84 162.84L1382.72 153.12C1386.8 151.12 1390.44 148.68 1393.64 145.8C1396.84 142.92 1399.56 139.72 1401.8 136.2C1404.04 132.6 1405.76 128.8 1406.96 124.8C1408.16 120.72 1408.76 116.44 1408.76 111.96C1408.76 107.48 1408.16 103.24 1406.96 99.24C1405.84 95.24 1404.16 91.52 1401.92 88.08C1399.76 84.64 1397.12 81.52 1394 78.72C1390.96 75.92 1387.48 73.48 1383.56 71.4L1386.56 61.44C1393.76 64.64 1399.84 68.8 1404.8 73.92C1409.84 79.04 1413.68 84.84 1416.32 91.32C1418.96 97.72 1420.28 104.48 1420.28 111.6C1420.28 118.72 1418.92 125.6 1416.2 132.24C1413.56 138.8 1409.68 144.72 1404.56 150C1399.44 155.28 1393.2 159.56 1385.84 162.84Z" fill="#282828"/>
<path d="M67.2 277.88C65.7067 277.88 64.2933 277.667 62.96 277.24C61.68 276.867 60.5067 276.253 59.44 275.4C58.3733 274.547 57.44 273.48 56.64 272.2C55.8933 270.92 55.3067 269.373 54.88 267.56C54.5067 265.747 54.32 263.693 54.32 261.4L54.4 239.96H62.24V261.4C62.24 263.267 62.4 264.867 62.72 266.2C63.0933 267.48 63.5733 268.52 64.16 269.32C64.8 270.12 65.52 270.707 66.32 271.08C67.12 271.4 67.9733 271.56 68.88 271.56C70.0533 271.56 71.1467 271.347 72.16 270.92C73.1733 270.493 74.0533 269.853 74.8 269C75.6 268.093 76.1867 266.973 76.56 265.64C76.9867 264.253 77.2 262.653 77.2 260.84V239.96H85.2V271.16C85.2 272.227 85.2267 273.24 85.28 274.2C85.3867 275.107 85.6267 276.04 86 277H78.56C78.2933 276.413 78.1067 275.853 78 275.32C77.8933 274.733 77.8133 274.173 77.76 273.64C77.76 273.053 77.76 272.467 77.76 271.88C77.2267 272.893 76.56 273.773 75.76 274.52C75.0133 275.267 74.16 275.907 73.2 276.44C72.2933 276.92 71.3333 277.267 70.32 277.48C69.36 277.747 68.32 277.88 67.2 277.88ZM110.56 277.88C108.32 277.88 106.213 277.667 104.24 277.24C102.267 276.813 100.4 276.173 98.64 275.32C96.9333 274.467 95.36 273.373 93.92 272.04L97.6 265.32L98.08 264.6L98.64 264.92C98.7467 265.347 98.88 265.8 99.04 266.28C99.2 266.707 99.5733 267.24 100.16 267.88C101.44 269 102.907 269.907 104.56 270.6C106.213 271.24 108.24 271.56 110.64 271.56C112.293 271.56 113.68 271.373 114.8 271C115.973 270.573 116.88 270.013 117.52 269.32C118.16 268.573 118.48 267.747 118.48 266.84C118.48 266.147 118.293 265.56 117.92 265.08C117.6 264.547 117.093 264.067 116.4 263.64C115.707 263.16 114.8 262.707 113.68 262.28C112.56 261.8 111.2 261.347 109.6 260.92C106.88 260.12 104.507 259.213 102.48 258.2C100.453 257.133 98.88 255.88 97.76 254.44C96.64 253 96.08 251.293 96.08 249.32C96.08 247.347 96.64 245.613 97.76 244.12C98.9333 242.573 100.587 241.347 102.72 240.44C104.853 239.533 107.387 239.08 110.32 239.08C111.92 239.08 113.413 239.213 114.8 239.48C116.24 239.693 117.547 240.04 118.72 240.52C119.947 241 121.093 241.613 122.16 242.36C123.227 243.053 124.24 243.88 125.2 244.84L121.12 250.28L120.64 250.92L120.08 250.44C120.027 250.013 119.893 249.613 119.68 249.24C119.52 248.867 119.147 248.387 118.56 247.8C117.387 246.947 116.107 246.307 114.72 245.88C113.333 245.453 111.92 245.24 110.48 245.24C108.613 245.24 106.96 245.56 105.52 246.2C104.133 246.84 103.44 247.8 103.44 249.08C103.44 249.827 103.733 250.52 104.32 251.16C104.96 251.8 105.973 252.44 107.36 253.08C108.747 253.667 110.64 254.28 113.04 254.92C116.08 255.72 118.533 256.653 120.4 257.72C122.267 258.733 123.627 259.933 124.48 261.32C125.387 262.707 125.84 264.333 125.84 266.2C125.84 268.28 125.253 270.227 124.08 272.04C122.96 273.8 121.253 275.213 118.96 276.28C116.667 277.347 113.867 277.88 110.56 277.88ZM138.56 255V248.28H161.6V255H138.56ZM177.92 277.08L170.96 239.96H177.76L182.56 266.76L188.24 243.88H192.56L199.28 266.6C199.813 262.653 200.267 259.373 200.64 256.76C201.013 254.093 201.28 251.88 201.44 250.12C201.6 248.307 201.707 246.787 201.76 245.56C201.813 244.28 201.84 243.027 201.84 241.8V239.96H208.8C208.427 243.96 207.947 248.067 207.36 252.28C206.773 256.493 206.107 260.707 205.36 264.92C204.613 269.08 203.84 273.133 203.04 277.08H196L190.32 255.72L184.96 277.08H177.92ZM231.68 277.88C229.013 277.88 226.56 277.453 224.32 276.6C222.08 275.747 220.133 274.52 218.48 272.92C216.88 271.267 215.627 269.24 214.72 266.84C213.813 264.44 213.36 261.72 213.36 258.68C213.36 255.587 213.813 252.84 214.72 250.44C215.627 247.987 216.853 245.933 218.4 244.28C220 242.627 221.84 241.347 223.92 240.44C226.053 239.533 228.32 239.08 230.72 239.08C232.8 239.08 234.773 239.453 236.64 240.2C238.56 240.947 240.213 242.067 241.6 243.56C243.04 245 244.16 246.84 244.96 249.08C245.813 251.32 246.24 253.933 246.24 256.92C246.24 257.453 246.24 258.067 246.24 258.76C246.24 259.4 246.213 259.96 246.16 260.44H221.04C221.147 262.36 221.52 264.04 222.16 265.48C222.8 266.867 223.6 268.013 224.56 268.92C225.573 269.827 226.72 270.493 228 270.92C229.28 271.347 230.613 271.56 232 271.56C233.227 271.56 234.347 271.453 235.36 271.24C236.427 270.973 237.44 270.573 238.4 270.04C239.36 269.507 240.24 268.787 241.04 267.88L245.2 271.96C244.08 273.293 242.827 274.413 241.44 275.32C240.053 276.173 238.533 276.813 236.88 277.24C235.28 277.667 233.547 277.88 231.68 277.88ZM221.2 254.44H238.48C238.48 252.947 238.293 251.64 237.92 250.52C237.547 249.4 236.987 248.44 236.24 247.64C235.547 246.84 234.693 246.253 233.68 245.88C232.667 245.453 231.547 245.24 230.32 245.24C229.147 245.24 228.053 245.427 227.04 245.8C226.08 246.173 225.2 246.733 224.4 247.48C223.6 248.227 222.907 249.187 222.32 250.36C221.787 251.48 221.413 252.84 221.2 254.44ZM270.56 277.88C268.32 277.88 266.213 277.667 264.24 277.24C262.267 276.813 260.4 276.173 258.64 275.32C256.933 274.467 255.36 273.373 253.92 272.04L257.6 265.32L258.08 264.6L258.64 264.92C258.747 265.347 258.88 265.8 259.04 266.28C259.2 266.707 259.573 267.24 260.16 267.88C261.44 269 262.907 269.907 264.56 270.6C266.213 271.24 268.24 271.56 270.64 271.56C272.293 271.56 273.68 271.373 274.8 271C275.973 270.573 276.88 270.013 277.52 269.32C278.16 268.573 278.48 267.747 278.48 266.84C278.48 266.147 278.293 265.56 277.92 265.08C277.6 264.547 277.093 264.067 276.4 263.64C275.707 263.16 274.8 262.707 273.68 262.28C272.56 261.8 271.2 261.347 269.6 260.92C266.88 260.12 264.507 259.213 262.48 258.2C260.453 257.133 258.88 255.88 257.76 254.44C256.64 253 256.08 251.293 256.08 249.32C256.08 247.347 256.64 245.613 257.76 244.12C258.933 242.573 260.587 241.347 262.72 240.44C264.853 239.533 267.387 239.08 270.32 239.08C271.92 239.08 273.413 239.213 274.8 239.48C276.24 239.693 277.547 240.04 278.72 240.52C279.947 241 281.093 241.613 282.16 242.36C283.227 243.053 284.24 243.88 285.2 244.84L281.12 250.28L280.64 250.92L280.08 250.44C280.027 250.013 279.893 249.613 279.68 249.24C279.52 248.867 279.147 248.387 278.56 247.8C277.387 246.947 276.107 246.307 274.72 245.88C273.333 245.453 271.92 245.24 270.48 245.24C268.613 245.24 266.96 245.56 265.52 246.2C264.133 246.84 263.44 247.8 263.44 249.08C263.44 249.827 263.733 250.52 264.32 251.16C264.96 251.8 265.973 252.44 267.36 253.08C268.747 253.667 270.64 254.28 273.04 254.92C276.08 255.72 278.533 256.653 280.4 257.72C282.267 258.733 283.627 259.933 284.48 261.32C285.387 262.707 285.84 264.333 285.84 266.2C285.84 268.28 285.253 270.227 284.08 272.04C282.96 273.8 281.253 275.213 278.96 276.28C276.667 277.347 273.867 277.88 270.56 277.88ZM313.92 277.72C311.733 277.72 309.84 277.373 308.24 276.68C306.693 275.933 305.44 274.76 304.48 273.16C303.573 271.56 302.933 269.48 302.56 266.92C302.187 264.36 302.053 261.24 302.16 257.56L303.2 231L311.36 229.96L312.16 229.88L312.24 230.6C311.973 230.973 311.733 231.347 311.52 231.72C311.36 232.093 311.227 232.733 311.12 233.64L310.32 243.96L310.64 244.84L310.08 257.56C309.92 261.187 310.027 264.013 310.4 266.04C310.773 268.013 311.413 269.4 312.32 270.2C313.227 270.947 314.32 271.32 315.6 271.32C317.307 271.32 318.827 270.973 320.16 270.28C321.547 269.587 322.907 268.733 324.24 267.72L326 273.64C324.187 274.973 322.293 275.987 320.32 276.68C318.347 277.373 316.213 277.72 313.92 277.72ZM294.96 239.96H322.88L322.8 246.36H294.96V239.96ZM338.56 255V248.28H361.6V255H338.56ZM387.2 277V235.96L377.84 239.08L376.08 234.12L389.36 227.08H395.12V277H387.2Z" fill="#282828"/>
<path d="M1503.33 170H1636.67M1578.33 111.667L1636.67 170L1578.33 228.333" stroke="#282828" stroke-width="16.6667" stroke-linecap="round" stroke-linejoin="round"/>
<rect x="2" y="2" width="1716" height="336" rx="18" stroke="#282828" stroke-width="4"/>
</svg>
