<svg width="1716" height="340" viewBox="0 0 1716 340" fill="none" xmlns="http://www.w3.org/2000/svg">
<rect x="2" y="2" width="1712" height="336" rx="18" fill="#F6F8FA"/>
<path d="M80 151.44C71.92 151.44 65.72 149.04 61.4 144.24C57.08 139.36 54.92 132.6 54.92 123.96V75.24H66.56H67.76V76.32C67.28 76.8 66.96 77.32 66.8 77.88C66.72 78.44 66.68 79.4 66.68 80.76V124.08C66.68 129.52 67.64 133.84 69.56 137.04C71.56 140.24 75.08 141.84 80.12 141.84C85.24 141.84 88.8 140.24 90.8 137.04C92.8 133.84 93.8 129.4 93.8 123.72V75.24H105.44V123.6C105.44 130 104.36 135.24 102.2 139.32C100.04 143.4 97.04 146.44 93.2 148.44C89.44 150.44 85.04 151.44 80 151.44ZM139.28 151.32C134.32 151.32 129.72 150.56 125.48 149.04C121.32 147.52 117.76 145.24 114.8 142.2L120.68 132.24L121.28 131.16L122.24 131.76C122.4 132.32 122.6 132.92 122.84 133.56C123.08 134.2 123.68 135 124.64 135.96C126.64 137.48 128.92 138.76 131.48 139.8C134.04 140.76 136.84 141.24 139.88 141.24C141.96 141.24 143.8 141 145.4 140.52C147.08 139.96 148.52 139.24 149.72 138.36C151 137.4 151.96 136.28 152.6 135C153.24 133.64 153.56 132.16 153.56 130.56C153.56 129.44 153.44 128.4 153.2 127.44C152.96 126.4 152.52 125.48 151.88 124.68C151.24 123.8 150.32 122.92 149.12 122.04C148 121.16 146.52 120.24 144.68 119.28C142.84 118.24 140.64 117.16 138.08 116.04C132.88 113.8 128.76 111.56 125.72 109.32C122.76 107 120.64 104.52 119.36 101.88C118.08 99.16 117.44 96.2 117.44 93C117.44 89.32 118.44 86.08 120.44 83.28C122.44 80.4 125.2 78.16 128.72 76.56C132.32 74.88 136.4 74.04 140.96 74.04C144 74.04 146.84 74.44 149.48 75.24C152.12 75.96 154.6 77.04 156.92 78.48C159.24 79.84 161.32 81.56 163.16 83.64L156.2 91.8L155.48 92.76L154.64 92.04C154.56 91.4 154.4 90.76 154.16 90.12C154 89.48 153.48 88.68 152.6 87.72C150.92 86.2 149.12 85.16 147.2 84.6C145.36 84.04 143.16 83.76 140.6 83.76C138.92 83.76 137.36 84 135.92 84.48C134.56 84.88 133.36 85.52 132.32 86.4C131.36 87.2 130.6 88.12 130.04 89.16C129.56 90.2 129.32 91.32 129.32 92.52C129.32 93.64 129.44 94.64 129.68 95.52C129.92 96.4 130.36 97.28 131 98.16C131.72 99.04 132.68 99.96 133.88 100.92C135.16 101.8 136.76 102.76 138.68 103.8C140.6 104.76 142.96 105.84 145.76 107.04C149.52 108.72 152.64 110.36 155.12 111.96C157.68 113.56 159.68 115.24 161.12 117C162.64 118.68 163.72 120.56 164.36 122.64C165 124.64 165.32 126.92 165.32 129.48C165.32 133.08 164.4 136.56 162.56 139.92C160.8 143.2 158 145.92 154.16 148.08C150.32 150.24 145.36 151.32 139.28 151.32ZM242.12 150L231.56 75.24H241.88L248 123.36L258.44 81H263.96L274.52 123.36L279.32 75.24H289.04L278.72 150H272L260.6 102.96L249.08 150H242.12ZM322.52 151.32C318.52 151.32 314.84 150.68 311.48 149.4C308.12 148.12 305.2 146.28 302.72 143.88C300.32 141.4 298.44 138.36 297.08 134.76C295.72 131.16 295.04 127.08 295.04 122.52C295.04 117.88 295.72 113.76 297.08 110.16C298.44 106.48 300.28 103.4 302.6 100.92C305 98.44 307.76 96.52 310.88 95.16C314.08 93.8 317.48 93.12 321.08 93.12C324.2 93.12 327.16 93.68 329.96 94.8C332.84 95.92 335.32 97.6 337.4 99.84C339.56 102 341.24 104.76 342.44 108.12C343.72 111.48 344.36 115.4 344.36 119.88C344.36 120.68 344.36 121.6 344.36 122.64C344.36 123.6 344.32 124.44 344.24 125.16H306.56C306.72 128.04 307.28 130.56 308.24 132.72C309.2 134.8 310.4 136.52 311.84 137.88C313.36 139.24 315.08 140.24 317 140.88C318.92 141.52 320.92 141.84 323 141.84C324.84 141.84 326.52 141.68 328.04 141.36C329.64 140.96 331.16 140.36 332.6 139.56C334.04 138.76 335.36 137.68 336.56 136.32L342.8 142.44C341.12 144.44 339.24 146.12 337.16 147.48C335.08 148.76 332.8 149.72 330.32 150.36C327.92 151 325.32 151.32 322.52 151.32ZM306.8 116.16H332.72C332.72 113.92 332.44 111.96 331.88 110.28C331.32 108.6 330.48 107.16 329.36 105.96C328.32 104.76 327.04 103.88 325.52 103.32C324 102.68 322.32 102.36 320.48 102.36C318.72 102.36 317.08 102.64 315.56 103.2C314.12 103.76 312.8 104.6 311.6 105.72C310.4 106.84 309.36 108.28 308.48 110.04C307.68 111.72 307.12 113.76 306.8 116.16ZM380.84 151.32C377.48 151.32 374.32 151 371.36 150.36C368.4 149.72 365.6 148.76 362.96 147.48C360.4 146.2 358.04 144.56 355.88 142.56L361.4 132.48L362.12 131.4L362.96 131.88C363.12 132.52 363.32 133.2 363.56 133.92C363.8 134.56 364.36 135.36 365.24 136.32C367.16 138 369.36 139.36 371.84 140.4C374.32 141.36 377.36 141.84 380.96 141.84C383.44 141.84 385.52 141.56 387.2 141C388.96 140.36 390.32 139.52 391.28 138.48C392.24 137.36 392.72 136.12 392.72 134.76C392.72 133.72 392.44 132.84 391.88 132.12C391.4 131.32 390.64 130.6 389.6 129.96C388.56 129.24 387.2 128.56 385.52 127.92C383.84 127.2 381.8 126.52 379.4 125.88C375.32 124.68 371.76 123.32 368.72 121.8C365.68 120.2 363.32 118.32 361.64 116.16C359.96 114 359.12 111.44 359.12 108.48C359.12 105.52 359.96 102.92 361.64 100.68C363.4 98.36 365.88 96.52 369.08 95.16C372.28 93.8 376.08 93.12 380.48 93.12C382.88 93.12 385.12 93.32 387.2 93.72C389.36 94.04 391.32 94.56 393.08 95.28C394.92 96 396.64 96.92 398.24 98.04C399.84 99.08 401.36 100.32 402.8 101.76L396.68 109.92L395.96 110.88L395.12 110.16C395.04 109.52 394.84 108.92 394.52 108.36C394.28 107.8 393.72 107.08 392.84 106.2C391.08 104.92 389.16 103.96 387.08 103.32C385 102.68 382.88 102.36 380.72 102.36C377.92 102.36 375.44 102.84 373.28 103.8C371.2 104.76 370.16 106.2 370.16 108.12C370.16 109.24 370.6 110.28 371.48 111.24C372.44 112.2 373.96 113.16 376.04 114.12C378.12 115 380.96 115.92 384.56 116.88C389.12 118.08 392.8 119.48 395.6 121.08C398.4 122.6 400.44 124.4 401.72 126.48C403.08 128.56 403.76 131 403.76 133.8C403.76 136.92 402.88 139.84 401.12 142.56C399.44 145.2 396.88 147.32 393.44 148.92C390 150.52 385.8 151.32 380.84 151.32ZM445.88 151.08C442.6 151.08 439.76 150.56 437.36 149.52C435.04 148.4 433.16 146.64 431.72 144.24C430.36 141.84 429.4 138.72 428.84 134.88C428.28 131.04 428.08 126.36 428.24 120.84L429.8 81L442.04 79.44L443.24 79.32L443.36 80.4C442.96 80.96 442.6 81.52 442.28 82.08C442.04 82.64 441.84 83.6 441.68 84.96L440.48 100.44L440.96 101.76L440.12 120.84C439.88 126.28 440.04 130.52 440.6 133.56C441.16 136.52 442.12 138.6 443.48 139.8C444.84 140.92 446.48 141.48 448.4 141.48C450.96 141.48 453.24 140.96 455.24 139.92C457.32 138.88 459.36 137.6 461.36 136.08L464 144.96C461.28 146.96 458.44 148.48 455.48 149.52C452.52 150.56 449.32 151.08 445.88 151.08ZM417.44 94.44H459.32L459.2 104.04H417.44V94.44ZM577.52 162.84C570.16 159.56 563.92 155.28 558.8 150C553.68 144.72 549.76 138.8 547.04 132.24C544.4 125.6 543.08 118.72 543.08 111.6C543.08 104.48 544.4 97.72 547.04 91.32C549.68 84.84 553.52 79.04 558.56 73.92C563.6 68.8 569.68 64.64 576.8 61.44L579.8 71.4C575.88 73.48 572.36 75.92 569.24 78.72C566.2 81.52 563.56 84.64 561.32 88.08C559.16 91.52 557.48 95.24 556.28 99.24C555.16 103.24 554.6 107.48 554.6 111.96C554.6 116.44 555.2 120.72 556.4 124.8C557.6 128.8 559.32 132.6 561.56 136.2C563.8 139.72 566.52 142.92 569.72 145.8C572.92 148.68 576.56 151.12 580.64 153.12L577.52 162.84ZM620.12 151.32C614.2 151.32 609.16 149.84 605 146.88C600.92 143.92 597.84 139.56 595.76 133.8C593.68 128.04 592.64 121.04 592.64 112.8C592.64 104.72 593.68 97.84 595.76 92.16C597.84 86.4 600.92 82 605 78.96C609.16 75.92 614.2 74.4 620.12 74.4C626.12 74.4 631.16 75.92 635.24 78.96C639.32 82 642.4 86.4 644.48 92.16C646.64 97.84 647.72 104.72 647.72 112.8C647.72 121.04 646.64 128.04 644.48 133.8C642.4 139.56 639.32 143.92 635.24 146.88C631.16 149.84 626.12 151.32 620.12 151.32ZM620.12 141.6C623.4 141.6 626.2 140.52 628.52 138.36C630.84 136.2 632.64 133 633.92 128.76C635.2 124.44 635.84 119.08 635.84 112.68C635.84 106.68 635.2 101.56 633.92 97.32C632.64 93.08 630.84 89.84 628.52 87.6C626.2 85.28 623.4 84.12 620.12 84.12C616.84 84.12 614 85.28 611.6 87.6C609.28 89.84 607.52 93.08 606.32 97.32C605.12 101.56 604.52 106.68 604.52 112.68C604.52 119.08 605.12 124.44 606.32 128.76C607.52 133 609.28 136.2 611.6 138.36C614 140.52 616.84 141.6 620.12 141.6ZM661.88 94.44H674.24L674 110.28L672.56 108.96C672.96 106.56 673.72 104.4 674.84 102.48C675.96 100.48 677.32 98.8 678.92 97.44C680.6 96.08 682.44 95.04 684.44 94.32C686.44 93.52 688.52 93.12 690.68 93.12C693.72 93.12 696.48 93.64 698.96 94.68C701.44 95.72 703.68 97.28 705.68 99.36L700.64 109.2L700.16 110.28L699.2 109.8C698.96 109.16 698.72 108.52 698.48 107.88C698.24 107.24 697.64 106.48 696.68 105.6C695.48 104.8 694.28 104.2 693.08 103.8C691.96 103.4 690.64 103.2 689.12 103.2C687.2 103.2 685.32 103.56 683.48 104.28C681.72 104.92 680.12 105.96 678.68 107.4C677.24 108.84 676.08 110.68 675.2 112.92C674.4 115.08 674 117.72 674 120.84V150.12H661.88V94.44ZM742.52 151.32C738.52 151.32 734.84 150.68 731.48 149.4C728.12 148.12 725.2 146.28 722.72 143.88C720.32 141.4 718.44 138.36 717.08 134.76C715.72 131.16 715.04 127.08 715.04 122.52C715.04 117.88 715.72 113.76 717.08 110.16C718.44 106.48 720.28 103.4 722.6 100.92C725 98.44 727.76 96.52 730.88 95.16C734.08 93.8 737.48 93.12 741.08 93.12C744.2 93.12 747.16 93.68 749.96 94.8C752.84 95.92 755.32 97.6 757.4 99.84C759.56 102 761.24 104.76 762.44 108.12C763.72 111.48 764.36 115.4 764.36 119.88C764.36 120.68 764.36 121.6 764.36 122.64C764.36 123.6 764.32 124.44 764.24 125.16H726.56C726.72 128.04 727.28 130.56 728.24 132.72C729.2 134.8 730.4 136.52 731.84 137.88C733.36 139.24 735.08 140.24 737 140.88C738.92 141.52 740.92 141.84 743 141.84C744.84 141.84 746.52 141.68 748.04 141.36C749.64 140.96 751.16 140.36 752.6 139.56C754.04 138.76 755.36 137.68 756.56 136.32L762.8 142.44C761.12 144.44 759.24 146.12 757.16 147.48C755.08 148.76 752.8 149.72 750.32 150.36C747.92 151 745.32 151.32 742.52 151.32ZM726.8 116.16H752.72C752.72 113.92 752.44 111.96 751.88 110.28C751.32 108.6 750.48 107.16 749.36 105.96C748.32 104.76 747.04 103.88 745.52 103.32C744 102.68 742.32 102.36 740.48 102.36C738.72 102.36 737.08 102.64 735.56 103.2C734.12 103.76 732.8 104.6 731.6 105.72C730.4 106.84 729.36 108.28 728.48 110.04C727.68 111.72 727.12 113.76 726.8 116.16ZM798.92 171.12C795.08 171.12 791.6 170.8 788.48 170.16C785.36 169.52 782.68 168.56 780.44 167.28C778.28 166.08 776.64 164.56 775.52 162.72C774.4 160.96 773.84 158.96 773.84 156.72C773.84 154.64 774.32 152.76 775.28 151.08C776.24 149.4 777.52 147.96 779.12 146.76C780.72 145.48 782.48 144.52 784.4 143.88L789.68 146.28C788.4 147.08 787.28 147.88 786.32 148.68C785.36 149.48 784.6 150.36 784.04 151.32C783.56 152.36 783.32 153.56 783.32 154.92C783.32 156.12 783.72 157.16 784.52 158.04C785.32 158.92 786.44 159.64 787.88 160.2C789.32 160.76 791.04 161.2 793.04 161.52C795.04 161.84 797.28 162 799.76 162C803.04 162 805.76 161.68 807.92 161.04C810.08 160.48 811.68 159.64 812.72 158.52C813.84 157.4 814.4 156.12 814.4 154.68C814.4 153.24 814.08 152.08 813.44 151.2C812.8 150.4 811.6 149.8 809.84 149.4C808.08 148.92 805.52 148.68 802.16 148.68C799.44 148.68 796.84 148.6 794.36 148.44C791.96 148.2 789.72 147.8 787.64 147.24C785.64 146.68 783.88 145.96 782.36 145.08C780.84 144.2 779.64 143.12 778.76 141.84C777.96 140.48 777.56 138.88 777.56 137.04C777.56 134.64 778.28 132.48 779.72 130.56C781.16 128.56 782.96 126.76 785.12 125.16L790.52 128.52C789.8 129.32 789.16 130 788.6 130.56C788.04 131.12 787.6 131.68 787.28 132.24C786.96 132.72 786.8 133.32 786.8 134.04C786.8 135.08 787.4 135.96 788.6 136.68C789.8 137.4 791.72 137.92 794.36 138.24C797.08 138.56 800.68 138.72 805.16 138.72C808.92 138.72 812.04 139.12 814.52 139.92C817.08 140.64 819.08 141.68 820.52 143.04C821.96 144.4 822.96 145.96 823.52 147.72C824.16 149.4 824.48 151.28 824.48 153.36C824.48 155.6 824 157.76 823.04 159.84C822.08 162 820.56 163.92 818.48 165.6C816.48 167.28 813.84 168.6 810.56 169.56C807.36 170.6 803.48 171.12 798.92 171.12ZM797.36 131.28C793.44 131.28 789.96 130.44 786.92 128.76C783.88 127 781.48 124.68 779.72 121.8C778.04 118.92 777.2 115.68 777.2 112.08C777.2 108.48 778.04 105.24 779.72 102.36C781.48 99.4 783.88 97.08 786.92 95.4C789.96 93.64 793.44 92.76 797.36 92.76C801.36 92.76 804.88 93.64 807.92 95.4C810.96 97.08 813.32 99.4 815 102.36C816.76 105.24 817.64 108.48 817.64 112.08C817.64 115.68 816.76 118.92 815 121.8C813.32 124.68 810.96 127 807.92 128.76C804.88 130.44 801.36 131.28 797.36 131.28ZM797.36 122.28C799.36 122.28 801.12 121.84 802.64 120.96C804.16 120.08 805.36 118.88 806.24 117.36C807.12 115.76 807.56 114 807.56 112.08C807.56 110.08 807.12 108.36 806.24 106.92C805.36 105.4 804.12 104.2 802.52 103.32C801 102.44 799.28 102 797.36 102C795.52 102 793.84 102.44 792.32 103.32C790.8 104.2 789.56 105.4 788.6 106.92C787.72 108.44 787.28 110.16 787.28 112.08C787.28 113.92 787.72 115.64 788.6 117.24C789.48 118.76 790.68 120 792.2 120.96C793.72 121.84 795.44 122.28 797.36 122.28ZM814.28 104.28L809.72 98.64C812.04 96.72 814.56 95.28 817.28 94.32C820.08 93.28 823.16 92.88 826.52 93.12L827.72 101.64C825.24 101.32 822.84 101.36 820.52 101.76C818.2 102.08 816.12 102.92 814.28 104.28ZM860 151.2C854.96 151.2 850.48 150 846.56 147.6C842.64 145.12 839.52 141.72 837.2 137.4C834.88 133 833.72 127.96 833.72 122.28C833.72 116.68 834.88 111.72 837.2 107.4C839.52 103 842.64 99.56 846.56 97.08C850.48 94.52 854.96 93.24 860 93.24C864.96 93.24 869.4 94.52 873.32 97.08C877.32 99.56 880.48 103 882.8 107.4C885.12 111.72 886.28 116.68 886.28 122.28C886.28 127.88 885.12 132.88 882.8 137.28C880.48 141.6 877.32 145 873.32 147.48C869.4 149.96 864.96 151.2 860 151.2ZM860 141.48C862.72 141.48 865.12 140.68 867.2 139.08C869.36 137.4 871.04 135.12 872.24 132.24C873.44 129.36 874.04 126 874.04 122.16C874.04 118.24 873.44 114.84 872.24 111.96C871.04 109.08 869.36 106.84 867.2 105.24C865.12 103.64 862.72 102.84 860 102.84C857.28 102.84 854.84 103.64 852.68 105.24C850.6 106.84 848.96 109.08 847.76 111.96C846.56 114.84 845.96 118.24 845.96 122.16C845.96 126 846.56 129.36 847.76 132.24C848.96 135.12 850.6 137.4 852.68 139.08C854.84 140.68 857.28 141.48 860 141.48ZM897.2 150V94.44H909.2V102.96C910.56 100.96 912.08 99.24 913.76 97.8C915.44 96.36 917.32 95.24 919.4 94.44C921.48 93.56 923.72 93.12 926.12 93.12C929.24 93.12 932.12 93.92 934.76 95.52C937.4 97.12 939.52 99.64 941.12 103.08C942.72 106.44 943.52 110.92 943.52 116.52V150H931.64V116.64C931.64 113.36 931.28 110.68 930.56 108.6C929.84 106.52 928.8 105 927.44 104.04C926.16 103.08 924.6 102.6 922.76 102.6C921.16 102.6 919.56 102.96 917.96 103.68C916.36 104.4 914.88 105.4 913.52 106.68C912.24 107.88 911.2 109.4 910.4 111.24C909.6 113 909.2 115 909.2 117.24V150H897.2ZM965.84 162.84L962.72 153.12C966.8 151.12 970.44 148.68 973.64 145.8C976.84 142.92 979.56 139.72 981.8 136.2C984.04 132.6 985.76 128.8 986.96 124.8C988.16 120.72 988.76 116.44 988.76 111.96C988.76 107.48 988.16 103.24 986.96 99.24C985.84 95.24 984.16 91.52 981.92 88.08C979.76 84.64 977.12 81.52 974 78.72C970.96 75.92 967.48 73.48 963.56 71.4L966.56 61.44C973.76 64.64 979.84 68.8 984.8 73.92C989.84 79.04 993.68 84.84 996.32 91.32C998.96 97.72 1000.28 104.48 1000.28 111.6C1000.28 118.72 998.92 125.6 996.2 132.24C993.56 138.8 989.68 144.72 984.56 150C979.44 155.28 973.2 159.56 965.84 162.84Z" fill="#282828"/>
<path d="M67.2 277.88C65.7067 277.88 64.2933 277.667 62.96 277.24C61.68 276.867 60.5067 276.253 59.44 275.4C58.3733 274.547 57.44 273.48 56.64 272.2C55.8933 270.92 55.3067 269.373 54.88 267.56C54.5067 265.747 54.32 263.693 54.32 261.4L54.4 239.96H62.24V261.4C62.24 263.267 62.4 264.867 62.72 266.2C63.0933 267.48 63.5733 268.52 64.16 269.32C64.8 270.12 65.52 270.707 66.32 271.08C67.12 271.4 67.9733 271.56 68.88 271.56C70.0533 271.56 71.1467 271.347 72.16 270.92C73.1733 270.493 74.0533 269.853 74.8 269C75.6 268.093 76.1867 266.973 76.56 265.64C76.9867 264.253 77.2 262.653 77.2 260.84V239.96H85.2V271.16C85.2 272.227 85.2267 273.24 85.28 274.2C85.3867 275.107 85.6267 276.04 86 277H78.56C78.2933 276.413 78.1067 275.853 78 275.32C77.8933 274.733 77.8133 274.173 77.76 273.64C77.76 273.053 77.76 272.467 77.76 271.88C77.2267 272.893 76.56 273.773 75.76 274.52C75.0133 275.267 74.16 275.907 73.2 276.44C72.2933 276.92 71.3333 277.267 70.32 277.48C69.36 277.747 68.32 277.88 67.2 277.88ZM110.56 277.88C108.32 277.88 106.213 277.667 104.24 277.24C102.267 276.813 100.4 276.173 98.64 275.32C96.9333 274.467 95.36 273.373 93.92 272.04L97.6 265.32L98.08 264.6L98.64 264.92C98.7467 265.347 98.88 265.8 99.04 266.28C99.2 266.707 99.5733 267.24 100.16 267.88C101.44 269 102.907 269.907 104.56 270.6C106.213 271.24 108.24 271.56 110.64 271.56C112.293 271.56 113.68 271.373 114.8 271C115.973 270.573 116.88 270.013 117.52 269.32C118.16 268.573 118.48 267.747 118.48 266.84C118.48 266.147 118.293 265.56 117.92 265.08C117.6 264.547 117.093 264.067 116.4 263.64C115.707 263.16 114.8 262.707 113.68 262.28C112.56 261.8 111.2 261.347 109.6 260.92C106.88 260.12 104.507 259.213 102.48 258.2C100.453 257.133 98.88 255.88 97.76 254.44C96.64 253 96.08 251.293 96.08 249.32C96.08 247.347 96.64 245.613 97.76 244.12C98.9333 242.573 100.587 241.347 102.72 240.44C104.853 239.533 107.387 239.08 110.32 239.08C111.92 239.08 113.413 239.213 114.8 239.48C116.24 239.693 117.547 240.04 118.72 240.52C119.947 241 121.093 241.613 122.16 242.36C123.227 243.053 124.24 243.88 125.2 244.84L121.12 250.28L120.64 250.92L120.08 250.44C120.027 250.013 119.893 249.613 119.68 249.24C119.52 248.867 119.147 248.387 118.56 247.8C117.387 246.947 116.107 246.307 114.72 245.88C113.333 245.453 111.92 245.24 110.48 245.24C108.613 245.24 106.96 245.56 105.52 246.2C104.133 246.84 103.44 247.8 103.44 249.08C103.44 249.827 103.733 250.52 104.32 251.16C104.96 251.8 105.973 252.44 107.36 253.08C108.747 253.667 110.64 254.28 113.04 254.92C116.08 255.72 118.533 256.653 120.4 257.72C122.267 258.733 123.627 259.933 124.48 261.32C125.387 262.707 125.84 264.333 125.84 266.2C125.84 268.28 125.253 270.227 124.08 272.04C122.96 273.8 121.253 275.213 118.96 276.28C116.667 277.347 113.867 277.88 110.56 277.88ZM138.56 255V248.28H161.6V255H138.56ZM177.92 277.08L170.96 239.96H177.76L182.56 266.76L188.24 243.88H192.56L199.28 266.6C199.813 262.653 200.267 259.373 200.64 256.76C201.013 254.093 201.28 251.88 201.44 250.12C201.6 248.307 201.707 246.787 201.76 245.56C201.813 244.28 201.84 243.027 201.84 241.8V239.96H208.8C208.427 243.96 207.947 248.067 207.36 252.28C206.773 256.493 206.107 260.707 205.36 264.92C204.613 269.08 203.84 273.133 203.04 277.08H196L190.32 255.72L184.96 277.08H177.92ZM231.68 277.88C229.013 277.88 226.56 277.453 224.32 276.6C222.08 275.747 220.133 274.52 218.48 272.92C216.88 271.267 215.627 269.24 214.72 266.84C213.813 264.44 213.36 261.72 213.36 258.68C213.36 255.587 213.813 252.84 214.72 250.44C215.627 247.987 216.853 245.933 218.4 244.28C220 242.627 221.84 241.347 223.92 240.44C226.053 239.533 228.32 239.08 230.72 239.08C232.8 239.08 234.773 239.453 236.64 240.2C238.56 240.947 240.213 242.067 241.6 243.56C243.04 245 244.16 246.84 244.96 249.08C245.813 251.32 246.24 253.933 246.24 256.92C246.24 257.453 246.24 258.067 246.24 258.76C246.24 259.4 246.213 259.96 246.16 260.44H221.04C221.147 262.36 221.52 264.04 222.16 265.48C222.8 266.867 223.6 268.013 224.56 268.92C225.573 269.827 226.72 270.493 228 270.92C229.28 271.347 230.613 271.56 232 271.56C233.227 271.56 234.347 271.453 235.36 271.24C236.427 270.973 237.44 270.573 238.4 270.04C239.36 269.507 240.24 268.787 241.04 267.88L245.2 271.96C244.08 273.293 242.827 274.413 241.44 275.32C240.053 276.173 238.533 276.813 236.88 277.24C235.28 277.667 233.547 277.88 231.68 277.88ZM221.2 254.44H238.48C238.48 252.947 238.293 251.64 237.92 250.52C237.547 249.4 236.987 248.44 236.24 247.64C235.547 246.84 234.693 246.253 233.68 245.88C232.667 245.453 231.547 245.24 230.32 245.24C229.147 245.24 228.053 245.427 227.04 245.8C226.08 246.173 225.2 246.733 224.4 247.48C223.6 248.227 222.907 249.187 222.32 250.36C221.787 251.48 221.413 252.84 221.2 254.44ZM270.56 277.88C268.32 277.88 266.213 277.667 264.24 277.24C262.267 276.813 260.4 276.173 258.64 275.32C256.933 274.467 255.36 273.373 253.92 272.04L257.6 265.32L258.08 264.6L258.64 264.92C258.747 265.347 258.88 265.8 259.04 266.28C259.2 266.707 259.573 267.24 260.16 267.88C261.44 269 262.907 269.907 264.56 270.6C266.213 271.24 268.24 271.56 270.64 271.56C272.293 271.56 273.68 271.373 274.8 271C275.973 270.573 276.88 270.013 277.52 269.32C278.16 268.573 278.48 267.747 278.48 266.84C278.48 266.147 278.293 265.56 277.92 265.08C277.6 264.547 277.093 264.067 276.4 263.64C275.707 263.16 274.8 262.707 273.68 262.28C272.56 261.8 271.2 261.347 269.6 260.92C266.88 260.12 264.507 259.213 262.48 258.2C260.453 257.133 258.88 255.88 257.76 254.44C256.64 253 256.08 251.293 256.08 249.32C256.08 247.347 256.64 245.613 257.76 244.12C258.933 242.573 260.587 241.347 262.72 240.44C264.853 239.533 267.387 239.08 270.32 239.08C271.92 239.08 273.413 239.213 274.8 239.48C276.24 239.693 277.547 240.04 278.72 240.52C279.947 241 281.093 241.613 282.16 242.36C283.227 243.053 284.24 243.88 285.2 244.84L281.12 250.28L280.64 250.92L280.08 250.44C280.027 250.013 279.893 249.613 279.68 249.24C279.52 248.867 279.147 248.387 278.56 247.8C277.387 246.947 276.107 246.307 274.72 245.88C273.333 245.453 271.92 245.24 270.48 245.24C268.613 245.24 266.96 245.56 265.52 246.2C264.133 246.84 263.44 247.8 263.44 249.08C263.44 249.827 263.733 250.52 264.32 251.16C264.96 251.8 265.973 252.44 267.36 253.08C268.747 253.667 270.64 254.28 273.04 254.92C276.08 255.72 278.533 256.653 280.4 257.72C282.267 258.733 283.627 259.933 284.48 261.32C285.387 262.707 285.84 264.333 285.84 266.2C285.84 268.28 285.253 270.227 284.08 272.04C282.96 273.8 281.253 275.213 278.96 276.28C276.667 277.347 273.867 277.88 270.56 277.88ZM313.92 277.72C311.733 277.72 309.84 277.373 308.24 276.68C306.693 275.933 305.44 274.76 304.48 273.16C303.573 271.56 302.933 269.48 302.56 266.92C302.187 264.36 302.053 261.24 302.16 257.56L303.2 231L311.36 229.96L312.16 229.88L312.24 230.6C311.973 230.973 311.733 231.347 311.52 231.72C311.36 232.093 311.227 232.733 311.12 233.64L310.32 243.96L310.64 244.84L310.08 257.56C309.92 261.187 310.027 264.013 310.4 266.04C310.773 268.013 311.413 269.4 312.32 270.2C313.227 270.947 314.32 271.32 315.6 271.32C317.307 271.32 318.827 270.973 320.16 270.28C321.547 269.587 322.907 268.733 324.24 267.72L326 273.64C324.187 274.973 322.293 275.987 320.32 276.68C318.347 277.373 316.213 277.72 313.92 277.72ZM294.96 239.96H322.88L322.8 246.36H294.96V239.96ZM338.56 255V248.28H361.6V255H338.56ZM375.04 271.08C378.027 268.093 380.72 265.427 383.12 263.08C385.52 260.68 387.627 258.52 389.44 256.6C391.307 254.627 392.853 252.813 394.08 251.16C395.307 249.453 396.213 247.773 396.8 246.12C397.44 244.467 397.76 242.707 397.76 240.84C397.76 239.507 397.573 238.36 397.2 237.4C396.88 236.44 396.4 235.667 395.76 235.08C395.12 234.44 394.32 233.987 393.36 233.72C392.453 233.4 391.413 233.24 390.24 233.24C389.067 233.24 387.947 233.4 386.88 233.72C385.867 233.987 384.88 234.44 383.92 235.08C383.013 235.667 382.16 236.44 381.36 237.4C380.827 238.147 380.507 238.707 380.4 239.08C380.293 239.453 380.267 239.853 380.32 240.28L379.92 240.84L379.28 240.44L373.84 236.2C374.96 234.12 376.347 232.36 378 230.92C379.707 229.48 381.6 228.413 383.68 227.72C385.76 226.973 387.947 226.6 390.24 226.6C393.173 226.6 395.76 227.187 398 228.36C400.293 229.533 402.107 231.187 403.44 233.32C404.773 235.453 405.44 237.987 405.44 240.92C405.44 243 405.093 245 404.4 246.92C403.76 248.84 402.827 250.733 401.6 252.6C400.373 254.413 398.933 256.253 397.28 258.12C395.627 259.987 393.787 261.933 391.76 263.96C389.733 265.987 387.573 268.147 385.28 270.44H401.92C402.827 270.44 403.467 270.387 403.84 270.28C404.213 270.173 404.56 269.987 404.88 269.72H405.6V270.44V277H375.04V271.08Z" fill="#282828"/>
<path d="M1499.33 170H1632.67M1574.33 111.667L1632.67 170L1574.33 228.333" stroke="#282828" stroke-width="16.6667" stroke-linecap="round" stroke-linejoin="round"/>
<rect x="2" y="2" width="1712" height="336" rx="18" stroke="#282828" stroke-width="4"/>
</svg>
